<svg width="120" height="152" viewBox="0 0 120 152" fill="none" xmlns="http://www.w3.org/2000/svg">
<g clip-path="url(#clip0_116_313)">
<path d="M110.574 0.613159H9.75523C4.87094 0.613159 0.911438 4.57266 0.911438 9.45695V142.556C0.911438 147.44 4.87094 151.4 9.75523 151.4H110.574C115.459 151.4 119.418 147.44 119.418 142.556V9.45695C119.418 4.57266 115.459 0.613159 110.574 0.613159Z" fill="#FCFCFC"/>
<mask id="mask0_116_313" style="mask-type:alpha" maskUnits="userSpaceOnUse" x="0" y="0" width="120" height="148">
<path d="M110.574 0.613159H9.75523C4.87094 0.613159 0.911438 4.57266 0.911438 9.45695V138.576C0.911438 143.461 4.87094 147.42 9.75523 147.42H110.574C115.459 147.42 119.418 143.461 119.418 138.576V9.45695C119.418 4.57266 115.459 0.613159 110.574 0.613159Z" fill="white"/>
</mask>
<g mask="url(#mask0_116_313)">
<path d="M14.412 19.3073C14.3785 19.0101 14.2403 18.7797 13.9974 18.6164C13.7546 18.451 13.4489 18.3683 13.0804 18.3683C12.8166 18.3683 12.5884 18.4102 12.3957 18.4939C12.2031 18.5756 12.0534 18.6887 11.9467 18.8331C11.842 18.9755 11.7896 19.1378 11.7896 19.3199C11.7896 19.4728 11.8252 19.6047 11.8964 19.7156C11.9697 19.8266 12.0649 19.9198 12.1822 19.9951C12.3016 20.0684 12.4293 20.1302 12.5654 20.1804C12.7014 20.2286 12.8323 20.2684 12.9579 20.2997L13.586 20.463C13.7912 20.5133 14.0016 20.5814 14.2173 20.6672C14.4329 20.753 14.6329 20.8661 14.8171 21.0064C15.0014 21.1467 15.15 21.3205 15.2631 21.5277C15.3782 21.735 15.4358 21.9831 15.4358 22.272C15.4358 22.6363 15.3416 22.9598 15.1532 23.2425C14.9668 23.5251 14.6957 23.7481 14.3397 23.9114C13.9859 24.0747 13.5578 24.1563 13.0553 24.1563C12.5737 24.1563 12.1571 24.0799 11.8053 23.9271C11.4536 23.7743 11.1783 23.5576 10.9794 23.277C10.7805 22.9944 10.6705 22.6594 10.6496 22.272H11.6232C11.642 22.5044 11.7174 22.6981 11.8493 22.853C11.9833 23.0059 12.154 23.12 12.3612 23.1953C12.5706 23.2686 12.7999 23.3053 13.049 23.3053C13.3233 23.3053 13.5672 23.2623 13.7807 23.1765C13.9964 23.0885 14.166 22.9671 14.2895 22.8122C14.4131 22.6552 14.4748 22.472 14.4748 22.2626C14.4748 22.0721 14.4204 21.9161 14.3115 21.7947C14.2047 21.6732 14.0592 21.5727 13.875 21.4932C13.6928 21.4136 13.4866 21.3435 13.2563 21.2827L12.4963 21.0755C11.9812 20.9352 11.5729 20.729 11.2714 20.4568C10.972 20.1846 10.8223 19.8245 10.8223 19.3765C10.8223 19.0059 10.9229 18.6824 11.1238 18.406C11.3249 18.1297 11.597 17.915 11.9404 17.7622C12.2837 17.6073 12.6711 17.5298 13.1024 17.5298C13.5379 17.5298 13.9221 17.6062 14.255 17.7591C14.59 17.9119 14.8537 18.1223 15.0464 18.3903C15.239 18.6562 15.3395 18.9619 15.3479 19.3073H14.412ZM16.5201 24.0496V19.2257H17.4214V20.0108H17.4811C17.5816 19.7449 17.7459 19.5376 17.9741 19.389C18.2024 19.2383 18.4756 19.1629 18.7938 19.1629C19.1163 19.1629 19.3864 19.2383 19.6041 19.389C19.824 19.5398 19.9862 19.747 20.0909 20.0108H20.1411C20.2563 19.7533 20.4395 19.5481 20.6907 19.3953C20.942 19.2404 21.2414 19.1629 21.589 19.1629C22.0265 19.1629 22.3835 19.3 22.6599 19.5743C22.9383 19.8486 23.0775 20.2621 23.0775 20.8148V24.0496H22.1386V20.9028C22.1386 20.5761 22.0495 20.3395 21.8716 20.193C21.6936 20.0464 21.4811 19.9731 21.2341 19.9731C20.9284 19.9731 20.6907 20.0674 20.5212 20.2558C20.3516 20.4421 20.2668 20.6818 20.2668 20.975V24.0496H19.3309V20.8431C19.3309 20.5814 19.2492 20.3709 19.0859 20.2118C18.9226 20.0527 18.7101 19.9731 18.4484 19.9731C18.2704 19.9731 18.1061 20.0202 17.9553 20.1145C17.8067 20.2066 17.6863 20.3353 17.5942 20.5008C17.5041 20.6661 17.4591 20.8577 17.4591 21.0755V24.0496H16.5201ZM25.74 24.1563C25.4343 24.1563 25.1579 24.0998 24.9109 23.9868C24.6638 23.8716 24.4681 23.7052 24.3236 23.4874C24.1812 23.2697 24.11 23.0027 24.11 22.6866C24.11 22.4144 24.1624 22.1904 24.267 22.0145C24.3717 21.8386 24.5131 21.6994 24.691 21.5968C24.869 21.4942 25.0679 21.4168 25.2877 21.3644C25.5076 21.3121 25.7316 21.2723 25.9598 21.2451C26.2487 21.2116 26.4832 21.1843 26.6633 21.1634C26.8434 21.1404 26.9742 21.1037 27.0558 21.0535C27.1375 21.0032 27.1783 20.9216 27.1783 20.8085V20.7866C27.1783 20.5123 27.1008 20.2997 26.9459 20.149C26.7931 19.9983 26.5649 19.9229 26.2613 19.9229C25.9451 19.9229 25.696 19.993 25.5138 20.1333C25.3338 20.2715 25.2092 20.4254 25.1401 20.595L24.2576 20.394C24.3623 20.1009 24.5151 19.8643 24.7162 19.6842C24.9192 19.5021 25.1527 19.3702 25.4165 19.2885C25.6803 19.2048 25.9577 19.1629 26.2488 19.1629C26.4414 19.1629 26.6455 19.1859 26.8611 19.232C27.0789 19.2759 27.282 19.3576 27.4704 19.4769C27.6609 19.5963 27.8169 19.7669 27.9384 19.9888C28.0598 20.2087 28.1205 20.4945 28.1205 20.8462V24.0496H27.2035V23.3901H27.1658C27.1051 23.5115 27.014 23.6309 26.8925 23.7481C26.7711 23.8653 26.6151 23.9627 26.4246 24.0401C26.2341 24.1176 26.0059 24.1563 25.74 24.1563ZM25.9441 23.4026C26.2037 23.4026 26.4257 23.3513 26.6099 23.2488C26.7962 23.1462 26.9375 23.0121 27.0339 22.8468C27.1323 22.6793 27.1815 22.5003 27.1815 22.3097V21.6879C27.148 21.7214 27.0831 21.7528 26.9868 21.7821C26.8925 21.8093 26.7847 21.8334 26.6633 21.8544C26.5418 21.8732 26.4235 21.891 26.3084 21.9077C26.1933 21.9224 26.0969 21.9349 26.0195 21.9454C25.8373 21.9684 25.6709 22.0072 25.5201 22.0616C25.3715 22.116 25.2521 22.1946 25.1621 22.2972C25.0742 22.3976 25.0302 22.5317 25.0302 22.6992C25.0302 22.9315 25.116 23.1074 25.2877 23.2267C25.4594 23.344 25.6782 23.4026 25.9441 23.4026ZM29.3712 24.0496V19.2257H30.2789V19.992H30.3291C30.4171 19.7324 30.5719 19.5282 30.7939 19.3796C31.0179 19.2289 31.2713 19.1535 31.5539 19.1535C31.6125 19.1535 31.6816 19.1555 31.7612 19.1597C31.8428 19.1639 31.9067 19.1692 31.9528 19.1754V20.0737C31.9151 20.0632 31.8481 20.0517 31.7518 20.0391C31.6554 20.0244 31.5591 20.0171 31.4628 20.0171C31.2409 20.0171 31.0431 20.0642 30.8693 20.1584C30.6976 20.2506 30.5615 20.3793 30.461 20.5447C30.3605 20.708 30.3103 20.8944 30.3103 21.1037V24.0496H29.3712ZM35.3021 19.2257V19.9794H32.6672V19.2257H35.3021ZM33.3738 18.07H34.3129V22.6332C34.3129 22.8154 34.3401 22.9525 34.3945 23.0446C34.449 23.1346 34.5191 23.1964 34.6049 23.2299C34.6929 23.2613 34.7881 23.277 34.8907 23.277C34.9661 23.277 35.032 23.2717 35.0886 23.2613C35.1451 23.2508 35.1891 23.2425 35.2205 23.2362L35.3901 24.0119C35.3357 24.0328 35.2582 24.0538 35.1577 24.0747C35.0572 24.0977 34.9316 24.1103 34.7808 24.1124C34.5337 24.1166 34.3035 24.0726 34.0899 23.9805C33.8763 23.8884 33.7036 23.746 33.5717 23.5534C33.4398 23.3608 33.3738 23.1189 33.3738 22.8279V18.07ZM40.8389 24.0496H38.7567V17.6177H40.9049C41.5351 17.6177 42.0763 17.7465 42.5286 18.004C42.9808 18.2594 43.3273 18.6269 43.5681 19.1064C43.811 19.5837 43.9324 20.1563 43.9324 20.8242C43.9324 21.4942 43.8099 22.07 43.5649 22.5516C43.3221 23.0331 42.9703 23.4037 42.5097 23.6633C42.0491 23.9208 41.4922 24.0496 40.8389 24.0496ZM39.7272 23.2016H40.7856C41.2755 23.2016 41.6827 23.1095 42.0072 22.9252C42.3318 22.7389 42.5746 22.4699 42.7358 22.1181C42.8971 21.7643 42.9777 21.333 42.9777 20.8242C42.9777 20.3196 42.8971 19.8915 42.7358 19.5398C42.5767 19.188 42.3391 18.921 42.0229 18.7389C41.7068 18.5568 41.3142 18.4657 40.8452 18.4657H39.7272V23.2016ZM47.1427 24.1469C46.6677 24.1469 46.2583 24.0454 45.9147 23.8423C45.5738 23.6371 45.3098 23.3492 45.1234 22.9787C44.9392 22.606 44.8471 22.1694 44.8471 21.669C44.8471 21.1749 44.9392 20.7394 45.1234 20.3626C45.3098 19.9857 45.5693 19.6916 45.9023 19.4801C46.2375 19.2686 46.6288 19.1629 47.0768 19.1629C47.3492 19.1629 47.6127 19.2079 47.8683 19.2979C48.1239 19.388 48.3529 19.5293 48.5559 19.7219C48.7593 19.9145 48.9194 20.1647 49.0365 20.4725C49.1537 20.7782 49.2125 21.1498 49.2125 21.5874V21.9203H45.3779V21.2168H48.2923C48.2923 20.9698 48.2419 20.751 48.1416 20.5604C48.0412 20.3678 47.8997 20.216 47.7175 20.1051C47.5375 19.9941 47.3262 19.9386 47.083 19.9386C46.8194 19.9386 46.589 20.0035 46.3923 20.1333C46.1977 20.261 46.0469 20.4285 45.9399 20.6358C45.8351 20.841 45.7829 21.0639 45.7829 21.3048V21.8544C45.7829 22.1768 45.8395 22.451 45.9527 22.6772C46.0677 22.9033 46.2278 23.076 46.4329 23.1953C46.6381 23.3126 46.8778 23.3712 47.1524 23.3712C47.3301 23.3712 47.4924 23.3461 47.6392 23.2958C47.7856 23.2435 47.9121 23.166 48.0191 23.0634C48.1256 22.9608 48.2074 22.8342 48.264 22.6835L49.1528 22.8436C49.0816 23.1053 48.9539 23.3346 48.7695 23.5314C48.5873 23.7261 48.3582 23.8779 48.0819 23.9868C47.8077 24.0936 47.4946 24.1469 47.1427 24.1469ZM54.2429 19.2257L52.4936 24.0496H51.4885L49.7361 19.2257H50.7443L51.9661 22.9378H52.016L53.2347 19.2257H54.2429ZM57.0402 24.1469C56.5648 24.1469 56.1558 24.0454 55.8122 23.8423C55.4708 23.6371 55.2073 23.3492 55.0207 22.9787C54.8367 22.606 54.7443 22.1694 54.7443 21.669C54.7443 21.1749 54.8367 20.7394 55.0207 20.3626C55.2073 19.9857 55.4669 19.6916 55.7998 19.4801C56.1346 19.2686 56.5264 19.1629 56.9743 19.1629C57.2467 19.1629 57.5102 19.2079 57.7658 19.2979C58.021 19.388 58.2505 19.5293 58.4534 19.7219C58.6564 19.9145 58.8169 20.1647 58.9341 20.4725C59.0513 20.7782 59.1101 21.1498 59.1101 21.5874V21.9203H55.2754V21.2168H58.1899C58.1899 20.9698 58.1395 20.751 58.0391 20.5604C57.9383 20.3678 57.7972 20.216 57.615 20.1051C57.4351 19.9941 57.2232 19.9386 56.9805 19.9386C56.7169 19.9386 56.4866 20.0035 56.2898 20.1333C56.0948 20.261 55.944 20.4285 55.8374 20.6358C55.7326 20.841 55.6804 21.0639 55.6804 21.3048V21.8544C55.6804 22.1768 55.737 22.451 55.8498 22.6772C55.9652 22.9033 56.1253 23.076 56.3305 23.1953C56.5356 23.3126 56.7753 23.3712 57.0495 23.3712C57.2277 23.3712 57.39 23.3461 57.5363 23.2958C57.6831 23.2435 57.8096 23.166 57.9166 23.0634C58.0232 22.9608 58.105 22.8342 58.1616 22.6835L59.0504 22.8436C58.9792 23.1053 58.8514 23.3346 58.667 23.5314C58.4848 23.7261 58.2558 23.8779 57.9794 23.9868C57.7052 24.0936 57.3922 24.1469 57.0402 24.1469ZM61.0906 17.6177V24.0496H60.1519V17.6177H61.0906ZM64.3858 24.1469C63.9339 24.1469 63.539 24.0433 63.2021 23.836C62.8651 23.6287 62.6034 23.3388 62.4168 22.9661C62.2306 22.5934 62.1373 22.1579 62.1373 21.6596C62.1373 21.1592 62.2306 20.7216 62.4168 20.3469C62.6034 19.9721 62.8651 19.6811 63.2021 19.4738C63.539 19.2665 63.9339 19.1629 64.3858 19.1629C64.8382 19.1629 65.2331 19.2665 65.57 19.4738C65.907 19.6811 66.1687 19.9721 66.3553 20.3469C66.5415 20.7216 66.6348 21.1592 66.6348 21.6596C66.6348 22.1579 66.5415 22.5934 66.3553 22.9661C66.1687 23.3388 65.907 23.6287 65.57 23.836C65.2331 24.0433 64.8382 24.1469 64.3858 24.1469ZM64.3894 23.3586C64.6821 23.3586 64.9253 23.2812 65.1177 23.1263C65.3105 22.9713 65.4528 22.7651 65.5448 22.5076C65.639 22.25 65.6863 21.9664 65.6863 21.6565C65.6863 21.3487 65.639 21.0661 65.5448 20.8085C65.4528 20.5489 65.3105 20.3406 65.1177 20.1835C64.9253 20.0265 64.6821 19.948 64.3894 19.948C64.094 19.948 63.849 20.0265 63.6545 20.1835C63.4617 20.3406 63.3184 20.5489 63.2242 20.8085C63.1318 21.0661 63.0858 21.3487 63.0858 21.6565C63.0858 21.9664 63.1318 22.25 63.2242 22.5076C63.3184 22.7651 63.4617 22.9713 63.6545 23.1263C63.849 23.2812 64.094 23.3586 64.3894 23.3586ZM67.6828 25.8586V19.2257H68.5999V20.0077H68.6782C68.733 19.9072 68.8113 19.791 68.9139 19.6591C69.0164 19.5272 69.1588 19.4121 69.341 19.3136C69.5232 19.2131 69.7637 19.1629 70.0636 19.1629C70.4527 19.1629 70.8002 19.2613 71.1058 19.4581C71.4118 19.6549 71.6515 19.9386 71.8252 20.3092C72.0012 20.6798 72.0892 21.1257 72.0892 21.6471C72.0892 22.1684 72.0021 22.6154 71.8283 22.9881C71.6545 23.3586 71.4158 23.6445 71.1124 23.8454C70.8086 24.0443 70.4624 24.1438 70.0728 24.1438C69.7797 24.1438 69.54 24.0946 69.3534 23.9962C69.1694 23.8978 69.0248 23.7827 68.9201 23.6508C68.8157 23.5188 68.7348 23.4016 68.6782 23.299H68.622V25.8586H67.6828ZM68.603 21.6376C68.603 21.9768 68.6521 22.2741 68.7507 22.5295C68.8489 22.785 68.9912 22.9849 69.1778 23.1294C69.364 23.2717 69.5922 23.3429 69.8624 23.3429C70.1427 23.3429 70.3775 23.2686 70.5659 23.12C70.7543 22.9692 70.8966 22.7651 70.993 22.5076C71.0912 22.25 71.1407 21.9601 71.1407 21.6376C71.1407 21.3194 71.0925 21.0336 70.9961 20.7803C70.9019 20.5269 70.7596 20.327 70.569 20.1804C70.3806 20.0339 70.1449 19.9606 69.8624 19.9606C69.59 19.9606 69.36 20.0307 69.1712 20.171C68.9851 20.3113 68.8436 20.507 68.7476 20.7583C68.6512 21.0095 68.603 21.3026 68.603 21.6376ZM73.1412 24.0496V19.2257H74.0424V20.0108H74.1021C74.2024 19.7449 74.3669 19.5376 74.5951 19.389C74.8233 19.2383 75.0966 19.1629 75.4149 19.1629C75.7373 19.1629 76.0075 19.2383 76.225 19.389C76.4448 19.5398 76.6071 19.747 76.7119 20.0108H76.7623C76.8773 19.7533 77.0603 19.5481 77.3119 19.3953C77.5631 19.2404 77.8624 19.1629 78.21 19.1629C78.6473 19.1629 79.0046 19.3 79.281 19.5743C79.5591 19.8486 79.6984 20.2621 79.6984 20.8148V24.0496H78.7597V20.9028C78.7597 20.5761 78.6708 20.3395 78.4926 20.193C78.3148 20.0464 78.1021 19.9731 77.8549 19.9731C77.5494 19.9731 77.3119 20.0674 77.1421 20.2558C76.9728 20.4421 76.8879 20.6818 76.8879 20.975V24.0496H75.9517V20.8431C75.9517 20.5814 75.8704 20.3709 75.7068 20.2118C75.5436 20.0527 75.3309 19.9731 75.0696 19.9731C74.8914 19.9731 74.7269 20.0202 74.5765 20.1145C74.4275 20.2066 74.3072 20.3353 74.2153 20.5008C74.1251 20.6661 74.08 20.8577 74.08 21.0755V24.0496H73.1412ZM83.0361 24.1469C82.5607 24.1469 82.1517 24.0454 81.8081 23.8423C81.4667 23.6371 81.2032 23.3492 81.0166 22.9787C80.8326 22.606 80.7402 22.1694 80.7402 21.669C80.7402 21.1749 80.8326 20.7394 81.0166 20.3626C81.2032 19.9857 81.4628 19.6916 81.7957 19.4801C82.1305 19.2686 82.5222 19.1629 82.9702 19.1629C83.2426 19.1629 83.5061 19.2079 83.7617 19.2979C84.0173 19.388 84.2463 19.5293 84.4493 19.7219C84.6527 19.9145 84.8128 20.1647 84.93 20.4725C85.0471 20.7782 85.106 21.1498 85.106 21.5874V21.9203H81.2713V21.2168H84.1858C84.1858 20.9698 84.1353 20.751 84.035 20.5604C83.9346 20.3678 83.7931 20.216 83.6109 20.1051C83.4309 19.9941 83.2196 19.9386 82.9764 19.9386C82.7128 19.9386 82.4824 20.0035 82.2857 20.1333C82.0907 20.261 81.9403 20.4285 81.8333 20.6358C81.7285 20.841 81.6763 21.0639 81.6763 21.3048V21.8544C81.6763 22.1768 81.7329 22.451 81.8457 22.6772C81.9611 22.9033 82.1212 23.076 82.3264 23.1953C82.5315 23.3126 82.7712 23.3712 83.0458 23.3712C83.2236 23.3712 83.3858 23.3461 83.5322 23.2958C83.679 23.2435 83.8055 23.166 83.9125 23.0634C84.0191 22.9608 84.1009 22.8342 84.1575 22.6835L85.0463 22.8436C84.9751 23.1053 84.8473 23.3346 84.6629 23.5314C84.4807 23.7261 84.2516 23.8779 83.9753 23.9868C83.7011 24.0936 83.3881 24.1469 83.0361 24.1469ZM87.0865 21.1854V24.0496H86.1478V19.2257H87.0489V20.0108H87.1086C87.2196 19.7554 87.3934 19.5502 87.63 19.3953C87.8688 19.2404 88.169 19.1629 88.5312 19.1629C88.8601 19.1629 89.148 19.232 89.3952 19.3702C89.6419 19.5062 89.8338 19.7093 89.9696 19.9794C90.1058 20.2495 90.1739 20.5835 90.1739 20.9813V24.0496H89.2347V21.0943C89.2347 20.7447 89.1436 20.4715 88.9614 20.2746C88.7797 20.0757 88.5294 19.9763 88.211 19.9763C87.9935 19.9763 87.7998 20.0234 87.63 20.1176C87.4624 20.2118 87.3297 20.35 87.2311 20.5322C87.1347 20.7122 87.0865 20.93 87.0865 21.1854ZM93.6849 19.2257V19.9794H91.0499V19.2257H93.6849ZM91.7565 18.07H92.6957V22.6332C92.6957 22.8154 92.7231 22.9525 92.7775 23.0446C92.8319 23.1346 92.9018 23.1964 92.988 23.2299C93.0755 23.2613 93.1711 23.277 93.2736 23.277C93.3488 23.277 93.4147 23.2717 93.4713 23.2613C93.5279 23.2508 93.5721 23.2425 93.6035 23.2362L93.7729 24.0119C93.7185 24.0328 93.6411 24.0538 93.5407 24.0747C93.4399 24.0977 93.3143 24.1103 93.1635 24.1124C92.9168 24.1166 92.6864 24.0726 92.4728 23.9805C92.2593 23.8884 92.0864 23.746 91.9546 23.5534C91.8228 23.3608 91.7565 23.1189 91.7565 22.8279V18.07Z" fill="#060815"/>
<path d="M21.7334 126.698H21.0801L22.9695 121.552H23.6127L25.502 126.698H24.8488L23.3111 122.367H23.2709L21.7334 126.698ZM21.9745 124.688H24.6076V125.241H21.9745V124.688ZM27.7908 126.778C27.429 126.778 27.1175 126.693 26.8562 126.522C26.5949 126.352 26.3939 126.116 26.2532 125.816C26.1125 125.516 26.0422 125.174 26.0422 124.788C26.0422 124.397 26.1142 124.051 26.2582 123.751C26.404 123.449 26.6066 123.214 26.8662 123.045C27.1275 122.874 27.4324 122.789 27.7808 122.789C28.0521 122.789 28.2967 122.839 28.5144 122.94C28.7322 123.04 28.9105 123.181 29.0496 123.361C29.1886 123.542 29.2749 123.754 29.3083 123.995H28.7154C28.6702 123.819 28.5697 123.663 28.4139 123.527C28.2598 123.39 28.0521 123.321 27.7908 123.321C27.5597 123.321 27.357 123.382 27.1828 123.502C27.0103 123.621 26.8754 123.79 26.7783 124.007C26.6828 124.223 26.6351 124.477 26.6351 124.769C26.6351 125.067 26.682 125.326 26.7758 125.547C26.8713 125.768 27.0053 125.94 27.1778 126.062C27.352 126.185 27.5563 126.246 27.7908 126.246C27.9449 126.246 28.0848 126.219 28.2104 126.165C28.336 126.112 28.4424 126.035 28.5295 125.934C28.6166 125.834 28.6786 125.713 28.7154 125.572H29.3083C29.2749 125.8 29.1919 126.005 29.0596 126.188C28.929 126.369 28.7556 126.513 28.5395 126.62C28.3252 126.726 28.0756 126.778 27.7908 126.778ZM31.8534 122.839V123.342H29.8535V122.839H31.8534ZM30.4364 121.914H31.0294V125.593C31.0294 125.76 31.0536 125.886 31.1022 125.97C31.1525 126.051 31.2161 126.107 31.2932 126.135C31.3719 126.162 31.4548 126.176 31.5419 126.176C31.6072 126.176 31.6608 126.172 31.7027 126.165C31.7446 126.157 31.7781 126.15 31.8032 126.146L31.9238 126.678C31.8836 126.693 31.8275 126.708 31.7555 126.723C31.6835 126.74 31.5921 126.748 31.4816 126.748C31.3141 126.748 31.15 126.712 30.9892 126.64C30.83 126.568 30.6977 126.459 30.5922 126.311C30.4884 126.164 30.4364 125.978 30.4364 125.753V121.914ZM32.7454 126.698V122.839H33.3383V126.698H32.7454ZM33.0469 122.196C32.9313 122.196 32.8316 122.157 32.7479 122.078C32.6658 121.999 32.6247 121.904 32.6247 121.794C32.6247 121.683 32.6658 121.589 32.7479 121.51C32.8316 121.431 32.9313 121.392 33.0469 121.392C33.1624 121.392 33.2612 121.431 33.3433 121.51C33.4271 121.589 33.4689 121.683 33.4689 121.794C33.4689 121.904 33.4271 121.999 33.3433 122.078C33.2612 122.157 33.1624 122.196 33.0469 122.196ZM37.5799 122.839L36.1528 126.698H35.5499L34.1228 122.839H34.766L35.8313 125.914H35.8715L36.9368 122.839H37.5799ZM39.8424 126.778C39.4706 126.778 39.1498 126.696 38.8801 126.532C38.6121 126.367 38.4053 126.135 38.2595 125.839C38.1155 125.541 38.0435 125.194 38.0435 124.799C38.0435 124.403 38.1155 124.055 38.2595 123.754C38.4053 123.45 38.6079 123.214 38.8675 123.045C39.1288 122.874 39.4337 122.789 39.7821 122.789C39.9831 122.789 40.1815 122.822 40.3775 122.889C40.5735 122.956 40.7519 123.065 40.9127 123.216C41.0735 123.365 41.2016 123.563 41.2971 123.809C41.3926 124.055 41.4403 124.358 41.4403 124.718V124.97H38.4655V124.457H40.8373C40.8373 124.239 40.7938 124.045 40.7066 123.874C40.6212 123.703 40.499 123.568 40.3399 123.469C40.1824 123.371 39.9965 123.321 39.7821 123.321C39.5459 123.321 39.3416 123.38 39.1691 123.497C38.9982 123.613 38.8667 123.763 38.7746 123.95C38.6825 124.135 38.6364 124.335 38.6364 124.547V124.889C38.6364 125.181 38.6866 125.427 38.7871 125.63C38.8893 125.831 39.0309 125.985 39.2117 126.09C39.3926 126.194 39.6029 126.246 39.8424 126.246C39.9982 126.246 40.1388 126.224 40.2645 126.18C40.3918 126.135 40.5015 126.068 40.5936 125.98C40.6857 125.889 40.7569 125.777 40.8072 125.643L41.38 125.804C41.3197 125.998 41.2184 126.169 41.076 126.316C40.9336 126.462 40.7578 126.576 40.5484 126.658C40.339 126.738 40.1037 126.778 39.8424 126.778ZM46.764 125.12V122.839H47.357V126.698H46.764V126.045H46.7238C46.6336 126.241 46.493 126.407 46.3019 126.545C46.1109 126.681 45.8699 126.748 45.5781 126.748C45.3371 126.748 45.1227 126.696 44.9351 126.59C44.7475 126.483 44.6001 126.322 44.4929 126.107C44.3857 125.892 44.3321 125.619 44.3321 125.291V122.839H44.925V125.251C44.925 125.532 45.0038 125.757 45.1611 125.924C45.3203 126.092 45.5228 126.176 45.7691 126.176C45.9168 126.176 46.0667 126.138 46.2188 126.062C46.3731 125.987 46.5018 125.871 46.6057 125.716C46.7114 125.56 46.764 125.362 46.764 125.12ZM51.1766 123.703L50.6438 123.854C50.6106 123.765 50.5611 123.679 50.4957 123.595C50.432 123.51 50.3449 123.439 50.2343 123.384C50.1238 123.329 49.9823 123.301 49.8098 123.301C49.5737 123.301 49.3769 123.356 49.2195 123.465C49.0639 123.572 48.9856 123.708 48.9856 123.874C48.9856 124.022 49.0395 124.138 49.1465 124.223C49.2536 124.309 49.4211 124.38 49.6489 124.437L50.222 124.578C50.5669 124.662 50.8242 124.789 50.9931 124.962C51.1625 125.133 51.2469 125.353 51.2469 125.623C51.2469 125.844 51.1833 126.042 51.0559 126.216C50.9303 126.39 50.7543 126.527 50.5284 126.628C50.3024 126.728 50.0393 126.778 49.7395 126.778C49.346 126.778 49.0201 126.693 48.7623 126.522C48.504 126.352 48.3409 126.102 48.2723 125.774L48.8352 125.633C48.8887 125.84 48.99 125.996 49.139 126.1C49.2898 126.204 49.4866 126.256 49.7294 126.256C50.0057 126.256 50.225 126.197 50.3878 126.08C50.5518 125.961 50.6341 125.819 50.6341 125.653C50.6341 125.519 50.5872 125.407 50.4935 125.316C50.3993 125.224 50.2556 125.155 50.061 125.11L49.418 124.96C49.0643 124.876 48.8047 124.746 48.6389 124.57C48.4749 124.393 48.3931 124.171 48.3931 123.904C48.3931 123.686 48.4541 123.494 48.5761 123.327C48.7004 123.159 48.8684 123.027 49.0811 122.932C49.2956 122.837 49.5383 122.789 49.8098 122.789C50.1919 122.789 50.4917 122.872 50.7092 123.04C50.9286 123.208 51.0847 123.429 51.1766 123.703ZM53.7577 126.778C53.3858 126.778 53.0648 126.696 52.7951 126.532C52.5271 126.367 52.3206 126.135 52.1747 125.839C52.0305 125.541 51.9584 125.194 51.9584 124.799C51.9584 124.403 52.0305 124.055 52.1747 123.754C52.3206 123.45 52.5231 123.214 52.7827 123.045C53.044 122.874 53.3487 122.789 53.6971 122.789C53.8983 122.789 54.0969 122.822 54.2927 122.889C54.4886 122.956 54.6668 123.065 54.8278 123.216C54.9888 123.365 55.1166 123.563 55.2121 123.809C55.3076 124.055 55.3553 124.358 55.3553 124.718V124.97H52.3807V124.457H54.7526C54.7526 124.239 54.7088 124.045 54.6217 123.874C54.5364 123.703 54.4139 123.568 54.2552 123.469C54.0977 123.371 53.9116 123.321 53.6971 123.321C53.461 123.321 53.2567 123.38 53.0842 123.497C52.9136 123.613 52.7818 123.763 52.6898 123.95C52.5978 124.135 52.5514 124.335 52.5514 124.547V124.889C52.5514 125.181 52.6018 125.427 52.7022 125.63C52.8043 125.831 52.9458 125.985 53.1267 126.09C53.308 126.194 53.518 126.246 53.7577 126.246C53.9133 126.246 54.054 126.224 54.1795 126.18C54.3069 126.135 54.4166 126.068 54.5085 125.98C54.601 125.889 54.6721 125.777 54.7221 125.643L55.2952 125.804C55.2351 125.998 55.1334 126.169 54.991 126.316C54.8486 126.462 54.673 126.576 54.4634 126.658C54.2543 126.738 54.019 126.778 53.7577 126.778ZM56.2574 126.698V122.839H56.83V123.422H56.8703C56.9406 123.231 57.0679 123.076 57.2523 122.957C57.4367 122.838 57.6441 122.779 57.8754 122.779C57.9191 122.779 57.9735 122.78 58.0385 122.781C58.104 122.783 58.1535 122.785 58.1871 122.789V123.392C58.1668 123.387 58.1208 123.379 58.0487 123.369C57.9784 123.358 57.9041 123.351 57.825 123.351C57.6375 123.351 57.4699 123.391 57.3226 123.469C57.1772 123.547 57.0613 123.654 56.976 123.791C56.8924 123.927 56.8504 124.082 56.8504 124.256V126.698H56.2574ZM62.0151 126.788C61.7706 126.788 61.5486 126.742 61.3496 126.65C61.1502 126.557 60.9919 126.422 60.8747 126.246C60.7576 126.068 60.6987 125.854 60.6987 125.602C60.6987 125.381 60.7425 125.202 60.8296 125.065C60.9163 124.926 61.033 124.817 61.1785 124.738C61.3244 124.66 61.485 124.601 61.661 124.562C61.8387 124.522 62.0169 124.49 62.196 124.467C62.4308 124.437 62.6209 124.414 62.7664 124.399C62.9141 124.382 63.0211 124.355 63.0879 124.316C63.1569 124.278 63.1909 124.211 63.1909 124.115V124.095C63.1909 123.847 63.1233 123.655 62.9875 123.517C62.8535 123.38 62.6501 123.312 62.3773 123.312C62.0939 123.312 61.8719 123.373 61.7114 123.497C61.5504 123.621 61.4376 123.754 61.3722 123.894L60.8093 123.693C60.9097 123.459 61.0437 123.276 61.2112 123.146C61.3806 123.013 61.5646 122.921 61.764 122.869C61.9652 122.815 62.1628 122.789 62.357 122.789C62.4808 122.789 62.6232 122.804 62.7841 122.834C62.9464 122.862 63.1034 122.922 63.2537 123.012C63.4063 123.103 63.5327 123.239 63.6331 123.422C63.7339 123.604 63.7839 123.849 63.7839 124.156V126.698H63.1909V126.176H63.1609C63.1206 126.259 63.0539 126.349 62.9601 126.444C62.8664 126.54 62.7412 126.621 62.5856 126.688C62.4299 126.755 62.2398 126.788 62.0151 126.788ZM62.1058 126.256C62.3402 126.256 62.5378 126.21 62.6988 126.118C62.8611 126.026 62.9835 125.907 63.0653 125.761C63.1494 125.615 63.1909 125.462 63.1909 125.301V124.758C63.1662 124.788 63.1109 124.816 63.0251 124.841C62.9415 124.865 62.8442 124.886 62.7337 124.904C62.6249 124.921 62.5188 124.936 62.4149 124.949C62.3127 124.961 62.2296 124.971 62.1659 124.979C62.0121 125 61.8679 125.033 61.7339 125.078C61.6017 125.121 61.4943 125.187 61.4124 125.276C61.332 125.363 61.2917 125.482 61.2917 125.633C61.2917 125.839 61.3678 125.995 61.5203 126.1C61.6747 126.204 61.8697 126.256 62.1058 126.256ZM65.4594 124.377V126.698H64.8664V122.839H65.439V123.442H65.4894C65.5796 123.246 65.7172 123.089 65.9016 122.97C66.0855 122.849 66.3234 122.789 66.6148 122.789C66.8761 122.789 67.1047 122.842 67.3006 122.949C67.497 123.055 67.6491 123.216 67.7583 123.432C67.8671 123.646 67.9215 123.918 67.9215 124.246V126.698H67.3285V124.286C67.3285 123.983 67.2498 123.747 67.0924 123.578C66.935 123.407 66.7187 123.321 66.4441 123.321C66.2549 123.321 66.0855 123.362 65.9365 123.445C65.7892 123.526 65.6729 123.646 65.5872 123.804C65.5018 123.961 65.4594 124.152 65.4594 124.377ZM70.1404 126.788C69.8958 126.788 69.6739 126.742 69.4749 126.65C69.2755 126.557 69.1172 126.422 69 126.246C68.8828 126.068 68.824 125.854 68.824 125.602C68.824 125.381 68.8678 125.202 68.9549 125.065C69.0415 124.926 69.1583 124.817 69.3038 124.738C69.4497 124.66 69.6102 124.601 69.7862 124.562C69.9639 124.522 70.1421 124.49 70.3212 124.467C70.556 124.437 70.7462 124.414 70.8917 124.399C71.0394 124.382 71.1464 124.355 71.2131 124.316C71.2821 124.278 71.3162 124.211 71.3162 124.115V124.095C71.3162 123.847 71.2485 123.655 71.1128 123.517C70.9788 123.38 70.7754 123.312 70.5025 123.312C70.2191 123.312 69.9971 123.373 69.8366 123.497C69.6756 123.621 69.5629 123.754 69.4974 123.894L68.9345 123.693C69.0349 123.459 69.1689 123.276 69.3365 123.146C69.5058 123.013 69.6898 122.921 69.8892 122.869C70.0904 122.815 70.2881 122.789 70.4822 122.789C70.606 122.789 70.7484 122.804 70.9093 122.834C71.0716 122.862 71.2286 122.922 71.3789 123.012C71.5315 123.103 71.658 123.239 71.7584 123.422C71.8592 123.604 71.9091 123.849 71.9091 124.156V126.698H71.3162V126.176H71.2861C71.2459 126.259 71.1791 126.349 71.0853 126.444C70.9916 126.54 70.8665 126.621 70.7108 126.688C70.5552 126.755 70.365 126.788 70.1404 126.788ZM70.231 126.256C70.4654 126.256 70.6631 126.21 70.824 126.118C70.9863 126.026 71.1088 125.907 71.1906 125.761C71.2746 125.615 71.3162 125.462 71.3162 125.301V124.758C71.2914 124.788 71.2361 124.816 71.1503 124.841C71.0668 124.865 70.9695 124.886 70.8589 124.904C70.7502 124.921 70.644 124.936 70.5401 124.949C70.438 124.961 70.3548 124.971 70.2912 124.979C70.1373 125 69.9931 125.033 69.8591 125.078C69.7269 125.121 69.6195 125.187 69.5377 125.276C69.4572 125.363 69.417 125.482 69.417 125.633C69.417 125.839 69.493 125.995 69.6456 126.1C69.7999 126.204 69.9949 126.256 70.231 126.256ZM73.5846 121.552V126.698H72.9916V121.552H73.5846ZM75.0522 128.145C74.9518 128.145 74.8621 128.137 74.7834 128.12C74.7047 128.105 74.6503 128.09 74.6202 128.075L74.771 127.552C74.9151 127.589 75.0425 127.603 75.153 127.592C75.2636 127.583 75.3613 127.533 75.4467 127.444C75.5338 127.357 75.6134 127.216 75.6854 127.02L75.796 126.718L74.369 122.839H75.012L76.0772 125.914H76.1175L77.1827 122.839H77.8261L76.1878 127.261C76.1144 127.46 76.0228 127.625 75.9141 127.756C75.8053 127.888 75.6788 127.986 75.5347 128.05C75.3923 128.113 75.2318 128.145 75.0522 128.145ZM80.2869 122.839V123.342H78.2873V122.839H80.2869ZM78.8701 121.914H79.4631V125.593C79.4631 125.76 79.4874 125.886 79.536 125.97C79.586 126.051 79.6497 126.107 79.7266 126.135C79.8053 126.162 79.8885 126.176 79.9756 126.176C80.041 126.176 80.0945 126.172 80.1361 126.165C80.1781 126.157 80.2117 126.15 80.2369 126.146L80.3572 126.678C80.3174 126.693 80.2612 126.708 80.1891 126.723C80.1171 126.74 80.0255 126.748 79.915 126.748C79.7478 126.748 79.5833 126.712 79.4228 126.64C79.2636 126.568 79.1314 126.459 79.0257 126.311C78.9218 126.164 78.8701 125.978 78.8701 125.753V121.914ZM81.1788 126.698V122.839H81.7717V126.698H81.1788ZM81.4803 122.196C81.3649 122.196 81.265 122.157 81.1814 122.078C81.0992 121.999 81.0585 121.904 81.0585 121.794C81.0585 121.683 81.0992 121.589 81.1814 121.51C81.265 121.431 81.3649 121.392 81.4803 121.392C81.5962 121.392 81.6948 121.431 81.777 121.51C81.8606 121.589 81.9026 121.683 81.9026 121.794C81.9026 121.904 81.8606 121.999 81.777 122.078C81.6948 122.157 81.5962 122.196 81.4803 122.196ZM84.4258 126.778C84.064 126.778 83.7523 126.693 83.491 126.522C83.2296 126.352 83.0289 126.116 82.8878 125.816C82.7472 125.516 82.6769 125.174 82.6769 124.788C82.6769 124.397 82.749 124.051 82.8931 123.751C83.0386 123.449 83.2416 123.214 83.5011 123.045C83.7625 122.874 84.0671 122.789 84.4156 122.789C84.6871 122.789 84.9316 122.839 85.1492 122.94C85.3672 123.04 85.5454 123.181 85.6842 123.361C85.8235 123.542 85.9097 123.754 85.9434 123.995H85.3504C85.3048 123.819 85.2045 123.663 85.0488 123.527C84.8945 123.39 84.6871 123.321 84.4258 123.321C84.1945 123.321 83.992 123.382 83.8177 123.502C83.6453 123.621 83.5104 123.79 83.4131 124.007C83.3176 124.223 83.2699 124.477 83.2699 124.769C83.2699 125.067 83.3167 125.326 83.4105 125.547C83.506 125.768 83.64 125.94 83.8124 126.062C83.9867 126.185 84.191 126.246 84.4258 126.246C84.5796 126.246 84.7198 126.219 84.8454 126.165C84.971 126.112 85.0771 126.035 85.1642 125.934C85.2513 125.834 85.3132 125.713 85.3504 125.572H85.9434C85.9097 125.8 85.8266 126.005 85.6944 126.188C85.5639 126.369 85.3906 126.513 85.1744 126.62C84.9599 126.726 84.7105 126.778 84.4258 126.778ZM89.5437 123.703L89.0108 123.854C88.9772 123.765 88.9281 123.679 88.8627 123.595C88.799 123.51 88.7119 123.439 88.6014 123.384C88.4908 123.329 88.3493 123.301 88.1768 123.301C87.9407 123.301 87.7439 123.356 87.5861 123.465C87.4304 123.572 87.3526 123.708 87.3526 123.874C87.3526 124.022 87.4061 124.138 87.5136 124.223C87.6206 124.309 87.7882 124.38 88.0159 124.437L88.589 124.578C88.9339 124.662 89.1908 124.789 89.3601 124.962C89.5291 125.133 89.614 125.353 89.614 125.623C89.614 125.844 89.5503 126.042 89.4229 126.216C89.2974 126.39 89.1214 126.527 88.8954 126.628C88.669 126.728 88.4063 126.778 88.1065 126.778C87.7126 126.778 87.3871 126.693 87.1289 126.522C86.8711 126.352 86.7079 126.102 86.6389 125.774L87.2018 125.633C87.2553 125.84 87.357 125.996 87.5061 126.1C87.6568 126.204 87.8536 126.256 88.0964 126.256C88.3727 126.256 88.5921 126.197 88.7548 126.08C88.9188 125.961 89.0007 125.819 89.0007 125.653C89.0007 125.519 88.9538 125.407 88.86 125.316C88.7663 125.224 88.6221 125.155 88.428 125.11L87.7846 124.96C87.4313 124.876 87.1718 124.746 87.0059 124.57C86.8419 124.393 86.7596 124.171 86.7596 123.904C86.7596 123.686 86.8207 123.494 86.9431 123.327C87.067 123.159 87.2354 123.027 87.4481 122.932C87.6626 122.837 87.9053 122.789 88.1768 122.789C88.5585 122.789 88.8583 122.872 89.0763 123.04C89.2956 123.208 89.4512 123.429 89.5437 123.703Z" fill="#060815"/>
<path d="M25.1312 137.25H24.5082C24.4713 137.071 24.4068 136.914 24.3147 136.778C24.2242 136.642 24.1137 136.528 23.9831 136.436C23.8541 136.342 23.7108 136.272 23.5534 136.225C23.396 136.178 23.2318 136.155 23.061 136.155C22.7494 136.155 22.4672 136.234 22.2143 136.391C21.963 136.548 21.7629 136.78 21.6138 137.087C21.4664 137.393 21.3927 137.769 21.3927 138.215C21.3927 138.66 21.4664 139.037 21.6138 139.343C21.7629 139.65 21.963 139.882 22.2143 140.039C22.4672 140.197 22.7494 140.275 23.061 140.275C23.2318 140.275 23.396 140.252 23.5534 140.205C23.7108 140.158 23.8541 140.088 23.9831 139.996C24.1137 139.902 24.2242 139.788 24.3147 139.652C24.4068 139.515 24.4713 139.357 24.5082 139.18H25.1312C25.0843 139.443 24.9989 139.678 24.8749 139.886C24.751 140.093 24.5969 140.27 24.4127 140.416C24.2284 140.56 24.0216 140.67 23.7921 140.745C23.5643 140.82 23.3206 140.858 23.061 140.858C22.6221 140.858 22.2318 140.751 21.8902 140.537C21.5485 140.322 21.2796 140.017 21.0837 139.622C20.8877 139.227 20.7897 138.758 20.7897 138.215C20.7897 137.672 20.8877 137.203 21.0837 136.808C21.2796 136.413 21.5485 136.108 21.8902 135.894C22.2318 135.679 22.6221 135.572 23.061 135.572C23.3206 135.572 23.5643 135.61 23.7921 135.685C24.0216 135.76 24.2284 135.871 24.4127 136.016C24.5969 136.161 24.751 136.337 24.8749 136.544C24.9989 136.75 25.0843 136.985 25.1312 137.25ZM27.6255 140.868C27.2771 140.868 26.9714 140.785 26.7084 140.619C26.4471 140.453 26.2428 140.222 26.0953 139.923C25.9496 139.625 25.8768 139.277 25.8768 138.878C25.8768 138.476 25.9496 138.125 26.0953 137.825C26.2428 137.526 26.4471 137.293 26.7084 137.127C26.9714 136.961 27.2771 136.878 27.6255 136.878C27.9739 136.878 28.2787 136.961 28.54 137.127C28.803 137.293 29.0073 137.526 29.153 137.825C29.3004 138.125 29.3741 138.476 29.3741 138.878C29.3741 139.277 29.3004 139.625 29.153 139.923C29.0073 140.222 28.803 140.453 28.54 140.619C28.2787 140.785 27.9739 140.868 27.6255 140.868ZM27.6255 140.335C27.8901 140.335 28.1078 140.268 28.2787 140.132C28.4495 139.996 28.576 139.818 28.6581 139.597C28.7401 139.376 28.7812 139.136 28.7812 138.878C28.7812 138.62 28.7401 138.38 28.6581 138.157C28.576 137.934 28.4495 137.754 28.2787 137.617C28.1078 137.48 27.8901 137.411 27.6255 137.411C27.3608 137.411 27.1431 137.48 26.9722 137.617C26.8013 137.754 26.6749 137.934 26.5928 138.157C26.5107 138.38 26.4697 138.62 26.4697 138.878C26.4697 139.136 26.5107 139.376 26.5928 139.597C26.6749 139.818 26.8013 139.996 26.9722 140.132C27.1431 140.268 27.3608 140.335 27.6255 140.335ZM31.7364 140.868C31.4148 140.868 31.1309 140.787 30.8847 140.625C30.6385 140.46 30.4459 140.229 30.3068 139.931C30.1678 139.631 30.0983 139.277 30.0983 138.868C30.0983 138.463 30.1678 138.111 30.3068 137.813C30.4459 137.515 30.6393 137.285 30.8872 137.122C31.1351 136.96 31.4215 136.878 31.7465 136.878C31.9977 136.878 32.1962 136.92 32.3419 137.004C32.4893 137.086 32.6015 137.18 32.6786 137.285C32.7573 137.389 32.8184 137.474 32.862 137.542H32.9122V135.642H33.5052V140.788H32.9323V140.195H32.862C32.8184 140.265 32.7565 140.354 32.6761 140.461C32.5957 140.567 32.481 140.661 32.3319 140.745C32.1828 140.827 31.9843 140.868 31.7364 140.868ZM31.8168 140.335C32.0546 140.335 32.2557 140.273 32.4198 140.15C32.5839 140.024 32.7087 139.851 32.7942 139.63C32.8796 139.407 32.9223 139.149 32.9223 138.858C32.9223 138.57 32.8804 138.318 32.7967 138.102C32.7129 137.884 32.589 137.715 32.4248 137.594C32.2607 137.472 32.058 137.411 31.8168 137.411C31.5656 137.411 31.3562 137.475 31.1887 137.604C31.0229 137.732 30.8981 137.905 30.8143 138.124C30.7323 138.342 30.6912 138.587 30.6912 138.858C30.6912 139.133 30.7331 139.382 30.8169 139.607C30.9023 139.83 31.0279 140.007 31.1937 140.139C31.3612 140.27 31.5689 140.335 31.8168 140.335ZM34.6735 140.788V136.929H35.2664V140.788H34.6735ZM34.975 136.285C34.8594 136.285 34.7597 136.246 34.676 136.167C34.5939 136.089 34.5529 135.994 34.5529 135.883C34.5529 135.773 34.5939 135.678 34.676 135.6C34.7597 135.521 34.8594 135.481 34.975 135.481C35.0905 135.481 35.1894 135.521 35.2714 135.6C35.3552 135.678 35.3971 135.773 35.3971 135.883C35.3971 135.994 35.3552 136.089 35.2714 136.167C35.1894 136.246 35.0905 136.285 34.975 136.285ZM36.9454 138.466V140.788H36.3524V136.929H36.9252V137.531H36.9755C37.0659 137.336 37.2033 137.178 37.3875 137.059C37.5718 136.938 37.8096 136.878 38.1011 136.878C38.3623 136.878 38.591 136.932 38.787 137.039C38.9829 137.145 39.1353 137.305 39.2442 137.522C39.3531 137.736 39.4076 138.007 39.4076 138.335V140.788H38.8146V138.376C38.8146 138.073 38.7359 137.837 38.5784 137.667C38.421 137.497 38.2049 137.411 37.9302 137.411C37.7409 137.411 37.5718 137.452 37.4227 137.534C37.2753 137.616 37.1589 137.736 37.0735 137.893C36.9881 138.051 36.9454 138.242 36.9454 138.466ZM42.0488 142.315C41.7623 142.315 41.5161 142.278 41.3101 142.205C41.1041 142.133 40.9324 142.037 40.795 141.918C40.6593 141.801 40.5513 141.675 40.4709 141.541L40.9433 141.21C40.9969 141.28 41.0647 141.36 41.1468 141.451C41.2288 141.543 41.3411 141.623 41.4835 141.69C41.6275 141.758 41.8159 141.793 42.0488 141.793C42.3603 141.793 42.6174 141.717 42.8201 141.566C43.0227 141.416 43.1241 141.179 43.1241 140.858V140.074H43.0738C43.0303 140.144 42.9683 140.231 42.8879 140.335C42.8092 140.438 42.6953 140.529 42.5462 140.609C42.3988 140.688 42.1995 140.728 41.9482 140.728C41.6367 140.728 41.357 140.654 41.1091 140.506C40.8629 140.359 40.6677 140.144 40.5237 139.863C40.3813 139.582 40.3102 139.24 40.3102 138.838C40.3102 138.443 40.3797 138.098 40.5186 137.806C40.6577 137.511 40.8511 137.283 41.099 137.122C41.347 136.96 41.6334 136.878 41.9583 136.878C42.2095 136.878 42.4089 136.92 42.5563 137.004C42.7053 137.086 42.8192 137.18 42.8979 137.285C42.9783 137.389 43.0403 137.474 43.0839 137.542H43.1441V136.929H43.717V140.898C43.717 141.23 43.6416 141.5 43.4909 141.707C43.3418 141.917 43.1408 142.07 42.8879 142.167C42.6366 142.266 42.3569 142.315 42.0488 142.315ZM42.0286 140.195C42.2665 140.195 42.4675 140.14 42.6316 140.032C42.7958 139.922 42.9206 139.766 43.006 139.562C43.0914 139.357 43.1341 139.113 43.1341 138.828C43.1341 138.55 43.0922 138.304 43.0085 138.092C42.9247 137.879 42.8008 137.712 42.6366 137.592C42.4725 137.471 42.2698 137.411 42.0286 137.411C41.7774 137.411 41.568 137.474 41.4005 137.602C41.2347 137.729 41.1099 137.9 41.0262 138.114C40.9441 138.329 40.9031 138.567 40.9031 138.828C40.9031 139.096 40.945 139.333 41.0287 139.539C41.1141 139.743 41.2397 139.904 41.4055 140.021C41.573 140.137 41.7807 140.195 42.0286 140.195ZM48.2494 140.868C47.9279 140.868 47.644 140.787 47.3977 140.625C47.1514 140.46 46.9591 140.229 46.8198 139.931C46.681 139.631 46.6115 139.277 46.6115 138.868C46.6115 138.463 46.681 138.111 46.8198 137.813C46.9591 137.515 47.1523 137.285 47.4004 137.122C47.648 136.96 47.9346 136.878 48.2596 136.878C48.5107 136.878 48.7093 136.92 48.8548 137.004C49.0024 137.086 49.1148 137.18 49.1917 137.285C49.2704 137.389 49.3314 137.474 49.3752 137.542H49.4252V135.642H50.0182V140.788H49.4455V140.195H49.3752C49.3314 140.265 49.2695 140.354 49.1891 140.461C49.1086 140.567 48.994 140.661 48.845 140.745C48.696 140.827 48.4975 140.868 48.2494 140.868ZM48.3299 140.335C48.5678 140.335 48.7685 140.273 48.933 140.15C49.0971 140.024 49.2218 139.851 49.3071 139.63C49.3925 139.407 49.4353 139.149 49.4353 138.858C49.4353 138.57 49.3933 138.318 49.3098 138.102C49.2258 137.884 49.1019 137.715 48.9379 137.594C48.7738 137.472 48.5709 137.411 48.3299 137.411C48.0787 137.411 47.8691 137.475 47.7015 137.604C47.5357 137.732 47.411 137.905 47.3274 138.124C47.2452 138.342 47.2041 138.587 47.2041 138.858C47.2041 139.133 47.2461 139.382 47.3301 139.607C47.4154 139.83 47.541 140.007 47.7068 140.139C47.8744 140.27 48.0818 140.335 48.3299 140.335ZM52.8044 140.868C52.4325 140.868 52.1119 140.786 51.8422 140.622C51.5742 140.456 51.3673 140.225 51.2218 139.929C51.0776 139.63 51.0056 139.283 51.0056 138.888C51.0056 138.493 51.0776 138.145 51.2218 137.843C51.3673 137.54 51.5702 137.304 51.8298 137.135C52.0911 136.964 52.3958 136.878 52.7443 136.878C52.945 136.878 53.1436 136.912 53.3394 136.979C53.5358 137.046 53.714 137.155 53.8749 137.305C54.0354 137.454 54.1637 137.652 54.2592 137.898C54.3547 138.145 54.4025 138.448 54.4025 138.808V139.059H51.4279V138.547H53.7993C53.7993 138.329 53.756 138.135 53.6689 137.964C53.5835 137.793 53.461 137.658 53.3019 137.559C53.1444 137.46 52.9587 137.411 52.7443 137.411C52.5081 137.411 52.3038 137.47 52.1314 137.587C51.9603 137.703 51.8289 137.853 51.7365 138.039C51.6445 138.225 51.5985 138.424 51.5985 138.637V138.979C51.5985 139.27 51.649 139.517 51.7493 139.72C51.8515 139.921 51.993 140.074 52.1738 140.18C52.3547 140.284 52.5652 140.335 52.8044 140.335C52.9605 140.335 53.1011 140.314 53.2267 140.27C53.354 140.225 53.4637 140.158 53.5557 140.069C53.6477 139.979 53.7188 139.867 53.7693 139.733L54.3423 139.893C54.2817 140.088 54.1805 140.258 54.0381 140.406C53.8957 140.552 53.7197 140.665 53.5106 140.747C53.301 140.828 53.0657 140.868 52.8044 140.868ZM58.3424 136.929L56.9154 140.788H56.3123L54.8853 136.929H55.5287L56.594 140.004H56.6342L57.6994 136.929H58.3424ZM60.6051 140.868C60.2332 140.868 59.9126 140.786 59.6429 140.622C59.3749 140.456 59.1679 140.225 59.022 139.929C58.8783 139.63 58.8062 139.283 58.8062 138.888C58.8062 138.493 58.8783 138.145 59.022 137.843C59.1679 137.54 59.3705 137.304 59.63 137.135C59.8914 136.964 60.1965 136.878 60.5445 136.878C60.7457 136.878 60.9442 136.912 61.1401 136.979C61.336 137.046 61.5146 137.155 61.6752 137.305C61.8361 137.454 61.9644 137.652 62.0599 137.898C62.1554 138.145 62.2027 138.448 62.2027 138.808V139.059H59.2281V138.547H61.6C61.6 138.329 61.5562 138.135 61.4691 137.964C61.3838 137.793 61.2617 137.658 61.1025 137.559C60.9451 137.46 60.7589 137.411 60.5445 137.411C60.3083 137.411 60.1041 137.47 59.9316 137.587C59.7609 137.703 59.6291 137.853 59.5372 138.039C59.4452 138.225 59.3992 138.424 59.3992 138.637V138.979C59.3992 139.27 59.4492 139.517 59.5496 139.72C59.6521 139.921 59.7936 140.074 59.9745 140.18C60.1554 140.284 60.3654 140.335 60.6051 140.335C60.7607 140.335 60.9013 140.314 61.0269 140.27C61.1543 140.225 61.2639 140.158 61.3563 140.069C61.4483 139.979 61.5195 139.867 61.5699 139.733L62.1426 139.893C62.0824 140.088 61.9812 140.258 61.8388 140.406C61.6964 140.552 61.5204 140.665 61.3108 140.747C61.1016 140.828 60.8664 140.868 60.6051 140.868ZM63.6977 135.642V140.788H63.1048V135.642H63.6977ZM66.3518 140.868C66.0033 140.868 65.6973 140.785 65.4347 140.619C65.1733 140.453 64.969 140.222 64.8213 139.923C64.6759 139.625 64.6029 139.277 64.6029 138.878C64.6029 138.476 64.6759 138.125 64.8213 137.825C64.969 137.526 65.1733 137.293 65.4347 137.127C65.6973 136.961 66.0033 136.878 66.3518 136.878C66.6998 136.878 67.0049 136.961 67.2662 137.127C67.5289 137.293 67.7336 137.526 67.8791 137.825C68.0263 138.125 68.1002 138.476 68.1002 138.878C68.1002 139.277 68.0263 139.625 67.8791 139.923C67.7336 140.222 67.5289 140.453 67.2662 140.619C67.0049 140.785 66.6998 140.868 66.3518 140.868ZM66.3518 140.335C66.6162 140.335 66.8342 140.268 67.0049 140.132C67.1756 139.996 67.302 139.818 67.3843 139.597C67.4661 139.376 67.5072 139.136 67.5072 138.878C67.5072 138.62 67.4661 138.38 67.3843 138.157C67.302 137.934 67.1756 137.754 67.0049 137.617C66.8342 137.48 66.6162 137.411 66.3518 137.411C66.0869 137.411 65.8693 137.48 65.6982 137.617C65.5275 137.754 65.4011 137.934 65.3188 138.157C65.237 138.38 65.1959 138.62 65.1959 138.878C65.1959 139.136 65.237 139.376 65.3188 139.597C65.4011 139.818 65.5275 139.996 65.6982 140.132C65.8693 140.268 66.0869 140.335 66.3518 140.335ZM69.0053 142.235V136.929H69.578V137.542H69.6487C69.6921 137.474 69.7522 137.389 69.8296 137.285C69.9083 137.18 70.0202 137.086 70.1661 137.004C70.3133 136.92 70.5128 136.878 70.7639 136.878C71.0889 136.878 71.3755 136.96 71.6231 137.122C71.8712 137.285 72.0648 137.515 72.2037 137.813C72.3425 138.111 72.4124 138.463 72.4124 138.868C72.4124 139.277 72.3425 139.631 72.2037 139.931C72.0648 140.229 71.8721 140.46 71.6258 140.625C71.3795 140.787 71.0956 140.868 70.7741 140.868C70.526 140.868 70.3279 140.827 70.1785 140.745C70.0294 140.661 69.9149 140.567 69.8344 140.461C69.754 140.354 69.6921 140.265 69.6487 140.195H69.5983V142.235H69.0053ZM69.5881 138.858C69.5881 139.149 69.631 139.407 69.7164 139.63C69.8017 139.851 69.9264 140.024 70.0909 140.15C70.255 140.273 70.4557 140.335 70.6936 140.335C70.9417 140.335 71.1486 140.27 71.3144 140.139C71.4816 140.007 71.6072 139.83 71.6912 139.607C71.7765 139.382 71.8194 139.133 71.8194 138.858C71.8194 138.587 71.7774 138.342 71.6939 138.124C71.6116 137.905 71.4869 137.732 71.3193 137.604C71.1535 137.475 70.9448 137.411 70.6936 137.411C70.4526 137.411 70.2497 137.472 70.0856 137.594C69.9216 137.715 69.7977 137.884 69.7137 138.102C69.6302 138.318 69.5881 138.57 69.5881 138.858ZM73.3167 140.788V136.929H73.8893V137.531H73.9397C74.0202 137.325 74.1498 137.166 74.3293 137.052C74.5084 136.936 74.7237 136.878 74.9749 136.878C75.2296 136.878 75.4414 136.936 75.6108 137.052C75.7815 137.166 75.9146 137.325 76.0101 137.531H76.0503C76.1489 137.332 76.2975 137.174 76.4951 137.057C76.6924 136.938 76.9294 136.878 77.2057 136.878C77.5511 136.878 77.8332 136.986 78.0525 137.202C78.2719 137.417 78.382 137.751 78.382 138.205V140.788H77.789V138.205C77.789 137.92 77.7112 137.717 77.5551 137.594C77.3994 137.472 77.2159 137.411 77.005 137.411C76.7335 137.411 76.5234 137.493 76.3744 137.657C76.2254 137.82 76.1507 138.026 76.1507 138.275V140.788H75.5475V138.145C75.5475 137.925 75.4763 137.749 75.3344 137.615C75.192 137.479 75.0085 137.411 74.7839 137.411C74.63 137.411 74.4858 137.452 74.3519 137.534C74.2196 137.616 74.1122 137.73 74.0304 137.876C73.9499 138.02 73.9097 138.186 73.9097 138.376V140.788H73.3167ZM81.0837 140.868C80.7119 140.868 80.3913 140.786 80.1215 140.622C79.8536 140.456 79.6466 140.225 79.5012 139.929C79.357 139.63 79.2849 139.283 79.2849 138.888C79.2849 138.493 79.357 138.145 79.5012 137.843C79.6466 137.54 79.8496 137.304 80.1092 137.135C80.3705 136.964 80.6752 136.878 81.0236 136.878C81.2248 136.878 81.4229 136.912 81.6192 136.979C81.8151 137.046 81.9933 137.155 82.1543 137.305C82.3148 137.454 82.443 137.652 82.5386 137.898C82.6341 138.145 82.6818 138.448 82.6818 138.808V139.059H79.7072V138.547H82.0787C82.0787 138.329 82.0353 138.135 81.9482 137.964C81.8629 137.793 81.7404 137.658 81.5812 137.559C81.4238 137.46 81.2381 137.411 81.0236 137.411C80.7875 137.411 80.5832 137.47 80.4107 137.587C80.2396 137.703 80.1083 137.853 80.0163 138.039C79.9239 138.225 79.8779 138.424 79.8779 138.637V138.979C79.8779 139.27 79.9283 139.517 80.0287 139.72C80.1308 139.921 80.2723 140.074 80.4532 140.18C80.634 140.284 80.8445 140.335 81.0837 140.335C81.2398 140.335 81.3805 140.314 81.506 140.27C81.6334 140.225 81.7431 140.158 81.835 140.069C81.9274 139.979 81.9986 139.867 82.0486 139.733L82.6217 139.893C82.5611 140.088 82.4598 140.258 82.3175 140.406C82.1751 140.552 81.9991 140.665 81.7899 140.747C81.5803 140.828 81.3451 140.868 81.0837 140.868ZM84.1769 138.466V140.788H83.5839V136.929H84.1565V137.531H84.2069C84.2971 137.336 84.4347 137.178 84.619 137.059C84.803 136.938 85.0409 136.878 85.3323 136.878C85.5936 136.878 85.8223 136.932 86.0181 137.039C86.2145 137.145 86.3666 137.305 86.4758 137.522C86.5846 137.736 86.639 138.007 86.639 138.335V140.788H86.046V138.376C86.046 138.073 85.9673 137.837 85.8099 137.667C85.6525 137.497 85.4362 137.411 85.1616 137.411C84.9724 137.411 84.803 137.452 84.654 137.534C84.5067 137.616 84.3904 137.736 84.3047 137.893C84.2193 138.051 84.1769 138.242 84.1769 138.466ZM89.4009 136.929V137.431H87.4009V136.929H89.4009ZM87.9837 136.004H88.5767V139.682C88.5767 139.85 88.601 139.975 88.6496 140.059C88.6996 140.141 88.7633 140.197 88.8406 140.225C88.9193 140.252 89.002 140.265 89.0891 140.265C89.1546 140.265 89.2081 140.262 89.2501 140.255C89.2917 140.246 89.3253 140.24 89.3505 140.235L89.4712 140.767C89.431 140.783 89.3748 140.798 89.3027 140.813C89.2307 140.83 89.1396 140.838 89.029 140.838C88.8614 140.838 88.6974 140.802 88.5364 140.73C88.3772 140.658 88.245 140.548 88.1393 140.401C88.0354 140.254 87.9837 140.067 87.9837 139.843V136.004Z" fill="#060815"/>
<g filter="url(#filter0_d_116_313)">
<path d="M59.3629 113.858C81.2346 113.858 98.9651 96.1279 98.9651 74.2562C98.9651 52.3845 81.2346 34.6541 59.3629 34.6541C37.4913 34.6541 19.7608 52.3845 19.7608 74.2562C19.7608 96.1279 37.4913 113.858 59.3629 113.858Z" fill="white"/>
<path d="M59.3629 105.015C76.3503 105.015 90.1213 91.2438 90.1213 74.2564C90.1213 57.269 76.3503 43.498 59.3629 43.498C42.3756 43.498 28.6046 57.269 28.6046 74.2564C28.6046 91.2438 42.3756 105.015 59.3629 105.015Z" stroke="black" stroke-width="17.6876"/>
</g>
<mask id="mask1_116_313" style="mask-type:alpha" maskUnits="userSpaceOnUse" x="19" y="34" width="80" height="80">
<path d="M59.3616 105.015C76.349 105.015 90.12 91.2436 90.12 74.2563C90.12 57.2689 76.349 43.4979 59.3616 43.4979C42.3743 43.4979 28.6033 57.2689 28.6033 74.2563C28.6033 91.2436 42.3743 105.015 59.3616 105.015Z" fill="white" stroke="black" stroke-width="17.6876"/>
</mask>
<g mask="url(#mask1_116_313)">
<path d="M60.5772 50.6295V33.819C36.0717 33.819 22.7501 49.605 19.1036 58.5027C11.0519 88.7843 23.7712 99.7095 33.763 104.888L44.0159 89.1739C41.1716 86.3297 39.0817 81.9715 38.5712 79.4187C36.7562 59.6816 49.8563 50.6295 60.5772 50.6295Z" fill="#3F53D8"/>
</g>
<mask id="mask2_116_313" style="mask-type:alpha" maskUnits="userSpaceOnUse" x="19" y="34" width="80" height="80">
<path d="M77.4741 49.3882C63.7518 39.3748 44.5102 42.3814 34.4968 56.1037C24.4833 69.826 27.4899 89.0676 41.2122 99.0811C54.9345 109.095 74.1762 106.088 84.1896 92.3656C94.2031 78.6433 91.1964 59.4017 77.4741 49.3882Z" fill="white" stroke="black" stroke-width="17.6876"/>
</mask>
<g mask="url(#mask2_116_313)">
<path d="M39.3475 84.547L23.3007 97.9679C40.6154 118.319 61.3574 118.88 71.323 115.622C102.16 100.913 98.9444 93.2475 101.307 83.4018L82.1341 79.0396C80.261 83.9319 79.8653 84.6191 78.0072 86.6983C62.6583 103.876 45.3988 94.0952 39.3475 84.547Z" fill="#FDCA49"/>
<path d="M98.1493 91.3281L79.1369 86.842C81.1821 82.5873 85.1392 73.8377 79.1369 61.2335L94.0635 50.4874C104.8 67.919 101.146 85.7777 98.1493 91.3281Z" fill="#DCE8E3"/>
</g>
<path d="M60.7307 97.4447C73.6583 97.4447 84.1383 86.9648 84.1383 74.0371C84.1383 61.1095 73.6583 50.6295 60.7307 50.6295C47.803 50.6295 37.3231 61.1095 37.3231 74.0371C37.3231 86.9648 47.803 97.4447 60.7307 97.4447Z" fill="white"/>
<path d="M52.1478 69.4733C52.6094 69.4764 53.0587 69.5582 53.4951 69.7183C53.9346 69.8753 54.3304 70.1331 54.6819 70.4908C55.0339 70.8459 55.3134 71.3217 55.5208 71.9182C55.7282 72.5151 55.8316 73.2531 55.8316 74.1322C55.8347 74.9613 55.7467 75.7029 55.5676 76.356C55.3921 77.006 55.1392 77.5556 54.8093 78.0049C54.4794 78.4537 54.0823 78.796 53.6176 79.0317C53.1529 79.2674 52.6297 79.385 52.0487 79.385C51.4394 79.385 50.8995 79.2656 50.4281 79.0268C49.9602 78.7885 49.5817 78.4617 49.293 78.0469C49.0042 77.6326 48.8265 77.1581 48.7606 76.6244H50.4803C50.5678 77.0078 50.7469 77.312 51.0171 77.5384C51.2904 77.7613 51.6344 77.8727 52.0487 77.8727C52.7177 77.8727 53.2329 77.5822 53.5942 77.0011C53.955 76.4201 54.1358 75.6131 54.1358 74.5797H54.07C53.9161 74.8561 53.7166 75.0949 53.4717 75.2961C53.2267 75.4937 52.9486 75.6463 52.6377 75.7528C52.3299 75.8598 52.0032 75.9129 51.6578 75.9129C51.0927 75.9129 50.5837 75.778 50.1314 75.5079C49.6825 75.2377 49.3261 74.8671 49.0622 74.3962C48.8013 73.9253 48.6695 73.3867 48.6664 72.7804C48.6664 72.1521 48.811 71.5887 49.0997 71.0891C49.392 70.5867 49.7984 70.191 50.3197 69.9022C50.8411 69.6099 51.4504 69.4671 52.1478 69.4733ZM52.1526 70.8865C51.8135 70.8865 51.507 70.9697 51.2337 71.1364C50.9636 71.2995 50.75 71.5224 50.593 71.8054C50.4391 72.0849 50.3622 72.3971 50.3622 72.7429C50.3653 73.0851 50.4422 73.396 50.593 73.6754C50.7469 73.9549 50.9561 74.1764 51.2196 74.3396C51.4867 74.5028 51.7913 74.5846 52.1336 74.5846C52.3879 74.5846 52.6249 74.5359 52.8451 74.4387C53.0649 74.3414 53.2563 74.2061 53.4195 74.0336C53.5862 73.8576 53.7149 73.6582 53.806 73.4353C53.9002 73.212 53.9457 72.9768 53.9426 72.7287C53.9426 72.3988 53.8639 72.0942 53.7069 71.8147C53.553 71.5352 53.3412 71.3106 53.071 71.1412C52.804 70.9714 52.498 70.8865 52.1526 70.8865ZM57.4001 79.2532V77.9908L60.7497 74.7071C61.0698 74.3838 61.3369 74.0964 61.5505 73.8452C61.7641 73.5936 61.9241 73.3504 62.0311 73.1147C62.1377 72.8795 62.1912 72.6279 62.1912 72.3612C62.1912 72.0566 62.1222 71.7957 61.9838 71.579C61.8459 71.3592 61.6557 71.1899 61.4138 71.0705C61.172 70.9511 60.8974 70.8914 60.5896 70.8914C60.2725 70.8914 59.9944 70.9573 59.7556 71.0891C59.5168 71.2182 59.3316 71.4017 59.1998 71.6405C59.0711 71.8793 59.0066 72.1631 59.0066 72.493H57.3439C57.3439 71.8806 57.4837 71.3482 57.7631 70.8963C58.0426 70.4439 58.4273 70.0937 58.9172 69.8456C59.4103 69.5976 59.9754 69.4733 60.613 69.4733C61.26 69.4733 61.8286 69.5945 62.3186 69.8363C62.8085 70.0778 63.1883 70.4094 63.4585 70.8299C63.7318 71.2509 63.8684 71.7316 63.8684 72.2715C63.8684 72.6327 63.799 72.9878 63.661 73.3363C63.5226 73.6847 63.2794 74.0712 62.931 74.4953C62.5852 74.9193 62.1001 75.4327 61.4753 76.0354L59.8122 77.7268V77.7927H64.0144V79.2532H57.4001ZM70.798 77.4442V76.9353C70.798 76.5616 70.8762 76.2176 71.0332 75.9036C71.1937 75.5897 71.4259 75.3367 71.7306 75.1453C72.0352 74.9538 72.4045 74.8578 72.8378 74.8578C73.2835 74.8578 73.6572 74.9538 73.9588 75.1453C74.2603 75.3336 74.4881 75.5848 74.6419 75.8988C74.7989 76.2132 74.8776 76.5585 74.8776 76.9353V77.4442C74.8776 77.8179 74.7989 78.1619 74.6419 78.4758C74.485 78.7898 74.2541 79.0427 73.9495 79.2342C73.6479 79.4257 73.2773 79.5216 72.8378 79.5216C72.3978 79.5216 72.0259 79.4257 71.7213 79.2342C71.4166 79.0427 71.1858 78.7898 71.0288 78.4758C70.8749 78.1619 70.798 77.8179 70.798 77.4442ZM72.0273 76.9353V77.4442C72.0273 77.6923 72.087 77.92 72.2064 78.1274C72.3257 78.3343 72.5362 78.4383 72.8378 78.4383C73.1425 78.4383 73.3512 78.3361 73.4644 78.1318C73.5802 77.9244 73.6386 77.6954 73.6386 77.4442V76.9353C73.6386 76.6841 73.5838 76.455 73.4737 76.2476C73.3636 76.0372 73.1518 75.9319 72.8378 75.9319C72.5424 75.9319 72.3337 76.0372 72.2112 76.2476C72.0887 76.455 72.0273 76.6841 72.0273 76.9353ZM65.8941 71.923V71.4141C65.8941 71.0373 65.9741 70.692 66.1342 70.378C66.2943 70.0636 66.5269 69.8125 66.8315 69.6241C67.1362 69.4326 67.505 69.3367 67.9383 69.3367C68.3814 69.3367 68.7533 69.4326 69.0549 69.6241C69.3595 69.8125 69.5886 70.0636 69.7425 70.378C69.8964 70.692 69.9733 71.0373 69.9733 71.4141V71.923C69.9733 72.2998 69.895 72.6451 69.7381 72.9595C69.5842 73.2704 69.3547 73.5198 69.05 73.7086C68.7453 73.897 68.3748 73.9912 67.9383 73.9912C67.4957 73.9912 67.1221 73.897 66.8174 73.7086C66.5158 73.5198 66.2863 73.2686 66.1293 72.9547C65.9724 72.6407 65.8941 72.2967 65.8941 71.923ZM67.1327 71.4141V71.923C67.1327 72.1742 67.191 72.4037 67.3073 72.6106C67.4263 72.8149 67.6368 72.9171 67.9383 72.9171C68.2399 72.9171 68.4473 72.8149 68.5601 72.6106C68.6764 72.4037 68.7347 72.1742 68.7347 71.923V71.4141C68.7347 71.1629 68.6795 70.9339 68.5698 70.7265C68.4597 70.516 68.2492 70.4107 67.9383 70.4107C67.6399 70.4107 67.4312 70.516 67.3118 70.7265C67.1924 70.937 67.1327 71.166 67.1327 71.4141ZM66.4309 79.2532L73.0638 69.6051H74.2413L67.6085 79.2532H66.4309Z" fill="#060815"/>
<path d="M16.2013 124.146C16.2013 122.859 15.1585 121.817 13.8722 121.817C12.5859 121.817 11.5431 122.859 11.5431 124.146C11.5431 125.432 12.5859 126.475 13.8722 126.475C15.1585 126.475 16.2013 125.432 16.2013 124.146Z" fill="#0076E3"/>
<path d="M15.7761 138.18C15.7761 136.894 14.7333 135.851 13.447 135.851C12.1607 135.851 11.1179 136.894 11.1179 138.18C11.1179 139.467 12.1607 140.509 13.447 140.509C14.7333 140.509 15.7761 139.467 15.7761 138.18Z" fill="#FFB039"/>
</g>
</g>
<defs>
<filter id="filter0_d_116_313" x="-0.137725" y="14.3133" width="123.423" height="123.423" filterUnits="userSpaceOnUse" color-interpolation-filters="sRGB">
<feFlood flood-opacity="0" result="BackgroundImageFix"/>
<feColorMatrix in="SourceAlpha" type="matrix" values="0 0 0 0 0 0 0 0 0 0 0 0 0 0 0 0 0 0 127 0" result="hardAlpha"/>
<feOffset dx="2.21095" dy="1.76876"/>
<feGaussianBlur stdDeviation="11.0547"/>
<feComposite in2="hardAlpha" operator="out"/>
<feColorMatrix type="matrix" values="0 0 0 0 0 0 0 0 0 0 0 0 0 0 0 0 0 0 0.08 0"/>
<feBlend mode="normal" in2="BackgroundImageFix" result="effect1_dropShadow_116_313"/>
<feBlend mode="normal" in="SourceGraphic" in2="effect1_dropShadow_116_313" result="shape"/>
</filter>
<clipPath id="clip0_116_313">
<rect width="118.507" height="150.787" fill="white" transform="translate(0.911438 0.613159)"/>
</clipPath>
</defs>
</svg>
