<svg width="120" height="134" viewBox="0 0 120 134" fill="none" xmlns="http://www.w3.org/2000/svg">
<g clip-path="url(#clip0_116_287)">
<path d="M110.975 0.0596924H9.10185C4.50897 0.0596924 0.785706 3.78296 0.785706 8.37584V125.634C0.785706 130.226 4.50897 133.95 9.10185 133.95H110.975C115.568 133.95 119.291 130.226 119.291 125.634V8.37584C119.291 3.78296 115.568 0.0596924 110.975 0.0596924Z" fill="#FBFBFB"/>
<path d="M27.5254 49.1409H107.44" stroke="#E2E2E2" stroke-width="0.415807"/>
<path d="M27.5254 81.5582H107.44" stroke="#E2E2E2" stroke-width="0.415807"/>
<path d="M27.5254 115.494H107.44" stroke="#E2E2E2" stroke-width="0.415807"/>
<path d="M71.2814 62.4632C71.2814 61.5446 72.0257 60.7999 72.9446 60.7999H82.9876C83.9065 60.7999 84.6508 61.5446 84.6508 62.4632V115.494H71.2814V62.4632Z" fill="black"/>
<path d="M89.5125 44.5352C89.5125 43.6167 90.2572 42.8719 91.1757 42.8719H101.219C102.138 42.8719 102.882 43.6167 102.882 44.5352V115.494H89.5125V44.5352Z" fill="#3F53D8"/>
<path d="M53.0494 74.6171C53.0494 73.6986 53.7941 72.9539 54.7126 72.9539H64.756C65.6745 72.9539 66.4192 73.6986 66.4192 74.6171V115.494H53.0494V74.6171Z" fill="#FDCA49"/>
<path d="M34.818 91.026C34.818 90.1075 35.5627 89.3628 36.4812 89.3628H46.5246C47.4431 89.3628 48.1878 90.1075 48.1878 91.026V115.495H34.818V91.026Z" fill="#E5E5E5"/>
<path d="M16.4529 16.3532H15.5315C15.496 16.1563 15.4301 15.9831 15.3336 15.8335C15.2371 15.6838 15.119 15.5568 14.9792 15.4525C14.8395 15.3481 14.6829 15.2694 14.5097 15.2162C14.3384 15.1631 14.1563 15.1365 13.9634 15.1365C13.6149 15.1365 13.3028 15.2241 13.0272 15.3993C12.7535 15.5745 12.537 15.8315 12.3775 16.1701C12.22 16.5087 12.1412 16.9222 12.1412 17.4105C12.1412 17.9026 12.22 18.318 12.3775 18.6567C12.537 18.9953 12.7545 19.2513 13.0301 19.4245C13.3058 19.5978 13.6159 19.6844 13.9604 19.6844C14.1513 19.6844 14.3325 19.6588 14.5038 19.6076C14.677 19.5544 14.8336 19.4767 14.9733 19.3743C15.1131 19.2719 15.2312 19.1469 15.3277 18.9993C15.4262 18.8496 15.4941 18.6783 15.5315 18.4854L16.4529 18.4884C16.4036 18.7857 16.3082 19.0593 16.1664 19.3093C16.0266 19.5574 15.8465 19.772 15.626 19.9531C15.4075 20.1323 15.1574 20.2711 14.8759 20.3696C14.5943 20.468 14.2872 20.5172 13.9545 20.5172C13.4308 20.5172 12.9642 20.3932 12.5547 20.1451C12.1452 19.8951 11.8223 19.5377 11.586 19.0731C11.3518 18.6084 11.2346 18.0543 11.2346 17.4105C11.2346 16.7647 11.3528 16.2105 11.589 15.7478C11.8252 15.2832 12.1481 14.9268 12.5576 14.6788C12.9671 14.4287 13.4327 14.3037 13.9545 14.3037C14.2754 14.3037 14.5746 14.35 14.8522 14.4425C15.1318 14.5331 15.3828 14.667 15.6053 14.8441C15.8278 15.0194 16.0119 15.234 16.1576 15.4879C16.3032 15.74 16.4017 16.0284 16.4529 16.3532ZM17.3908 20.4345V15.8984H18.2442V16.619H18.2915C18.3742 16.3748 18.5199 16.1829 18.7286 16.0431C18.9392 15.9014 19.1775 15.8305 19.4432 15.8305C19.4983 15.8305 19.5633 15.8325 19.6381 15.8364C19.7149 15.8403 19.775 15.8453 19.8183 15.8512V16.6958C19.7828 16.6859 19.7198 16.6751 19.6293 16.6633C19.5387 16.6495 19.4481 16.6426 19.3576 16.6426C19.1489 16.6426 18.9629 16.6869 18.7994 16.7755C18.638 16.8621 18.51 16.9832 18.4155 17.1388C18.321 17.2923 18.2738 17.4675 18.2738 17.6644V20.4345H17.3908ZM22.2918 20.5261C21.8449 20.5261 21.46 20.4305 21.1372 20.2396C20.8162 20.0466 20.5682 19.7759 20.3929 19.4275C20.2197 19.077 20.1331 18.6665 20.1331 18.196C20.1331 17.7314 20.2197 17.3218 20.3929 16.9675C20.5682 16.6131 20.8123 16.3365 21.1253 16.1376C21.4403 15.9388 21.8085 15.8394 22.2298 15.8394C22.4857 15.8394 22.7338 15.8817 22.974 15.9664C23.2142 16.051 23.4298 16.1839 23.6208 16.365C23.8118 16.5462 23.9624 16.7814 24.0726 17.0708C24.1829 17.3583 24.238 17.7077 24.238 18.1192V18.4323H20.6322V17.7708H23.3727C23.3727 17.5384 23.3254 17.3327 23.231 17.1535C23.1364 16.9724 23.0035 16.8297 22.8323 16.7253C22.663 16.621 22.4641 16.5688 22.2357 16.5688C21.9876 16.5688 21.7711 16.6298 21.586 16.7519C21.4029 16.872 21.2612 17.0295 21.1608 17.2244C21.0623 17.4173 21.0131 17.627 21.0131 17.8534V18.3702C21.0131 18.6734 21.0663 18.9313 21.1726 19.144C21.2809 19.3566 21.4315 19.519 21.6244 19.6312C21.8174 19.7415 22.0428 19.7966 22.3007 19.7966C22.468 19.7966 22.6206 19.773 22.7584 19.7258C22.8962 19.6765 23.0154 19.6037 23.1158 19.5072C23.2162 19.4107 23.293 19.2916 23.3461 19.1499L24.1819 19.3005C24.1149 19.5466 23.9948 19.7621 23.8216 19.9472C23.6503 20.1303 23.4347 20.273 23.1748 20.3755C22.9169 20.4758 22.6226 20.5261 22.2918 20.5261ZM26.4546 20.5349C26.1672 20.5349 25.9073 20.4817 25.6749 20.3755C25.4426 20.2671 25.2586 20.1106 25.1227 19.9059C24.9888 19.7011 24.9219 19.4501 24.9219 19.1528C24.9219 18.8969 24.9711 18.6862 25.0696 18.5208C25.168 18.3555 25.3009 18.2245 25.4682 18.1281C25.6356 18.0316 25.8226 17.9587 26.0293 17.9096C26.2361 17.8603 26.4467 17.8229 26.6613 17.7973C26.933 17.7658 27.1535 17.7402 27.3228 17.7205C27.4921 17.6989 27.6152 17.6644 27.692 17.6172C27.7688 17.5699 27.8072 17.4931 27.8072 17.3868V17.3661C27.8072 17.1082 27.7343 16.9084 27.5886 16.7667C27.4449 16.6249 27.2303 16.554 26.9448 16.554C26.6476 16.554 26.4133 16.62 26.242 16.7519C26.0727 16.8818 25.9555 17.0265 25.8905 17.186L25.0607 16.997C25.1591 16.7214 25.3029 16.4989 25.4919 16.3296C25.6828 16.1583 25.9024 16.0343 26.1504 15.9575C26.3985 15.8787 26.6594 15.8394 26.933 15.8394C27.1141 15.8394 27.3061 15.861 27.5089 15.9043C27.7136 15.9457 27.9046 16.0225 28.0818 16.1347C28.261 16.2469 28.4076 16.4074 28.5218 16.6161C28.636 16.8228 28.6931 17.0915 28.6931 17.4223V20.4345H27.8308V19.8143H27.7954C27.7383 19.9285 27.6526 20.0407 27.5384 20.151C27.4242 20.2612 27.2775 20.3528 27.0984 20.4256C26.9192 20.4985 26.7047 20.5349 26.4546 20.5349ZM26.6466 19.8261C26.8907 19.8261 27.0994 19.7779 27.2726 19.6814C27.4479 19.585 27.5808 19.459 27.6713 19.3034C27.7638 19.1459 27.8101 18.9776 27.8101 18.7984V18.2137C27.7786 18.2452 27.7176 18.2748 27.627 18.3023C27.5384 18.3279 27.437 18.3506 27.3228 18.3702C27.2087 18.3879 27.0974 18.4047 26.9891 18.4204C26.8808 18.4342 26.7903 18.446 26.7174 18.4559C26.5461 18.4775 26.3896 18.514 26.2479 18.5652C26.1081 18.6163 25.9959 18.6901 25.9112 18.7866C25.8285 18.8811 25.7872 19.0071 25.7872 19.1646C25.7872 19.3832 25.8679 19.5485 26.0293 19.6608C26.1908 19.771 26.3965 19.8261 26.6466 19.8261ZM31.9035 15.8984V16.6072H29.4258V15.8984H31.9035ZM30.0902 14.8117H30.9732V19.1026C30.9732 19.2739 30.9988 19.4028 31.05 19.4895C31.1012 19.5742 31.1671 19.6322 31.2479 19.6637C31.3305 19.6932 31.4202 19.708 31.5166 19.708C31.5875 19.708 31.6495 19.7031 31.7027 19.6932C31.7558 19.6834 31.7972 19.6755 31.8267 19.6696L31.9862 20.3991C31.935 20.4187 31.8621 20.4385 31.7676 20.4581C31.6731 20.4798 31.555 20.4916 31.4133 20.4935C31.1809 20.4975 30.9644 20.4562 30.7636 20.3696C30.5627 20.2829 30.4003 20.149 30.2763 19.9679C30.1522 19.7868 30.0902 19.5594 30.0902 19.2857V14.8117ZM34.7034 20.5261C34.2565 20.5261 33.8715 20.4305 33.5487 20.2396C33.2278 20.0466 32.9797 19.7759 32.8045 19.4275C32.6312 19.077 32.5446 18.6665 32.5446 18.196C32.5446 17.7314 32.6312 17.3218 32.8045 16.9675C32.9797 16.6131 33.2238 16.3365 33.5369 16.1376C33.8518 15.9388 34.22 15.8394 34.6413 15.8394C34.8973 15.8394 35.1453 15.8817 35.3855 15.9664C35.6257 16.051 35.8413 16.1839 36.0323 16.365C36.2233 16.5462 36.3739 16.7814 36.4841 17.0708C36.5944 17.3583 36.6495 17.7077 36.6495 18.1192V18.4323H33.0437V17.7708H35.7842C35.7842 17.5384 35.737 17.3327 35.6425 17.1535C35.548 16.9724 35.4151 16.8297 35.2438 16.7253C35.0745 16.621 34.8756 16.5688 34.6472 16.5688C34.3992 16.5688 34.1826 16.6298 33.9975 16.7519C33.8145 16.872 33.6727 17.0295 33.5723 17.2244C33.4739 17.4173 33.4246 17.627 33.4246 17.8534V18.3702C33.4246 18.6734 33.4778 18.9313 33.5841 19.144C33.6924 19.3566 33.843 19.519 34.036 19.6312C34.2289 19.7415 34.4543 19.7966 34.7122 19.7966C34.8795 19.7966 35.0322 19.773 35.17 19.7258C35.3078 19.6765 35.4269 19.6037 35.5273 19.5072C35.6277 19.4107 35.7045 19.2916 35.7577 19.1499L36.5934 19.3005C36.5264 19.5466 36.4064 19.7621 36.2331 19.9472C36.0618 20.1303 35.8462 20.273 35.5863 20.3755C35.3285 20.4758 35.0341 20.5261 34.7034 20.5261ZM40.9838 20.5349C40.6964 20.5349 40.4365 20.4817 40.2042 20.3755C39.9719 20.2671 39.7878 20.1106 39.6519 19.9059C39.518 19.7011 39.4511 19.4501 39.4511 19.1528C39.4511 18.8969 39.5003 18.6862 39.5988 18.5208C39.6972 18.3555 39.8301 18.2245 39.9975 18.1281C40.1648 18.0316 40.3518 17.9587 40.5586 17.9096C40.7653 17.8603 40.976 17.8229 41.1905 17.7973C41.4622 17.7658 41.6827 17.7402 41.8521 17.7205C42.0214 17.6989 42.1444 17.6644 42.2212 17.6172C42.298 17.5699 42.3364 17.4931 42.3364 17.3868V17.3661C42.3364 17.1082 42.2635 16.9084 42.1178 16.7667C41.9741 16.6249 41.7595 16.554 41.474 16.554C41.1767 16.554 40.9425 16.62 40.7712 16.7519C40.6019 16.8818 40.4847 17.0265 40.4198 17.186L39.5899 16.997C39.6884 16.7214 39.8321 16.4989 40.0211 16.3296C40.2121 16.1583 40.4316 16.0343 40.6796 15.9575C40.9277 15.8787 41.1886 15.8394 41.4622 15.8394C41.6434 15.8394 41.8353 15.861 42.0381 15.9043C42.2429 15.9457 42.4338 16.0225 42.6109 16.1347C42.7901 16.2469 42.9369 16.4074 43.0512 16.6161C43.1652 16.8228 43.2221 17.0915 43.2221 17.4223V20.4345H42.36V19.8143H42.3246C42.2674 19.9285 42.1818 20.0407 42.0677 20.151C41.9534 20.2612 41.8068 20.3528 41.6276 20.4256C41.4485 20.4985 41.2339 20.5349 40.9838 20.5349ZM41.1758 19.8261C41.4199 19.8261 41.6286 19.7779 41.8019 19.6814C41.9771 19.585 42.11 19.459 42.2005 19.3034C42.2931 19.1459 42.3393 18.9776 42.3393 18.7984V18.2137C42.3078 18.2452 42.2468 18.2748 42.1562 18.3023C42.0677 18.3279 41.9662 18.3506 41.8521 18.3702C41.7379 18.3879 41.6266 18.4047 41.5183 18.4204C41.4101 18.4342 41.3195 18.446 41.2466 18.4559C41.0754 18.4775 40.9189 18.514 40.7771 18.5652C40.6373 18.6163 40.5251 18.6901 40.4404 18.7866C40.3577 18.8811 40.3164 19.0071 40.3164 19.1646C40.3164 19.3832 40.3971 19.5485 40.5586 19.6608C40.72 19.771 40.9257 19.8261 41.1758 19.8261ZM47.1885 18.5533V15.8984H48.0746V20.4345H47.2064V19.649H47.159C47.0546 19.8911 46.8875 20.0929 46.6571 20.2544C46.4288 20.4138 46.1444 20.4935 45.8035 20.4935C45.5124 20.4935 45.2542 20.4296 45.0301 20.3016C44.8076 20.1717 44.6321 19.9797 44.5041 19.7258C44.3781 19.4718 44.3153 19.1578 44.3153 18.7837V15.8984H45.1985V18.6773C45.1985 18.9865 45.2837 19.2326 45.455 19.4156C45.6263 19.5988 45.8488 19.6903 46.1228 19.6903C46.2879 19.6903 46.4525 19.649 46.616 19.5663C46.781 19.4836 46.9178 19.3586 47.0264 19.1912C47.1366 19.0239 47.1906 18.8112 47.1885 18.5533ZM51.2955 15.8984V16.6072H48.8177V15.8984H51.2955ZM49.4821 14.8117H50.3653V19.1026C50.3653 19.2739 50.3907 19.4028 50.4418 19.4895C50.493 19.5742 50.5591 19.6322 50.6397 19.6637C50.7225 19.6932 50.8119 19.708 50.9083 19.708C50.9794 19.708 51.0414 19.7031 51.0946 19.6932C51.1478 19.6834 51.189 19.6755 51.2185 19.6696L51.3782 20.3991C51.3271 20.4187 51.2539 20.4385 51.1595 20.4581C51.0651 20.4798 50.947 20.4916 50.8052 20.4935C50.5728 20.4975 50.3562 20.4562 50.1553 20.3696C49.9545 20.2829 49.7923 20.149 49.668 19.9679C49.5441 19.7868 49.4821 19.5594 49.4821 19.2857V14.8117ZM54.051 20.5261C53.6256 20.5261 53.2547 20.4286 52.9375 20.2337C52.6206 20.0388 52.3745 19.7661 52.1994 19.4156C52.024 19.0652 51.9366 18.6557 51.9366 18.1871C51.9366 17.7166 52.024 17.3051 52.1994 16.9527C52.3745 16.6003 52.6206 16.3266 52.9375 16.1317C53.2547 15.9368 53.6256 15.8394 54.051 15.8394C54.4764 15.8394 54.8473 15.9368 55.1641 16.1317C55.4814 16.3266 55.7275 16.6003 55.9026 16.9527C56.0777 17.3051 56.1654 17.7166 56.1654 18.1871C56.1654 18.6557 56.0777 19.0652 55.9026 19.4156C55.7275 19.7661 55.4814 20.0388 55.1641 20.2337C54.8473 20.4286 54.4764 20.5261 54.051 20.5261ZM54.0539 19.7848C54.3296 19.7848 54.5579 19.712 54.7392 19.5663C54.92 19.4206 55.0539 19.2267 55.1408 18.9845C55.2294 18.7423 55.2735 18.4755 55.2735 18.1842C55.2735 17.8947 55.2294 17.629 55.1408 17.3868C55.0539 17.1427 54.92 16.9468 54.7392 16.7991C54.5579 16.6515 54.3296 16.5776 54.0539 16.5776C53.7762 16.5776 53.5458 16.6515 53.3629 16.7991C53.1816 16.9468 53.0468 17.1427 52.9583 17.3868C52.8718 17.629 52.8285 17.8947 52.8285 18.1842C52.8285 18.4755 52.8718 18.7423 52.9583 18.9845C53.0468 19.2267 53.1816 19.4206 53.3629 19.5663C53.5458 19.712 53.7762 19.7848 54.0539 19.7848ZM60.0686 14.3864V20.4345H59.1854V14.3864H60.0686ZM62.4936 20.5349C62.2058 20.5349 61.9459 20.4817 61.7139 20.3755C61.4815 20.2671 61.2973 20.1106 61.1613 19.9059C61.0278 19.7011 60.9609 19.4501 60.9609 19.1528C60.9609 18.8969 61.01 18.6862 61.1085 18.5208C61.2066 18.3555 61.3397 18.2245 61.5069 18.1281C61.6744 18.0316 61.8615 17.9587 62.0682 17.9096C62.2749 17.8603 62.4857 17.8229 62.7002 17.7973C62.9717 17.7658 63.1921 17.7402 63.3618 17.7205C63.531 17.6989 63.6541 17.6644 63.7306 17.6172C63.8075 17.5699 63.8458 17.4931 63.8458 17.3868V17.3661C63.8458 17.1082 63.773 16.9084 63.6275 16.7667C63.4836 16.6249 63.269 16.554 62.9838 16.554C62.6865 16.554 62.452 16.62 62.2807 16.7519C62.1114 16.8818 61.9942 17.0265 61.9293 17.186L61.0994 16.997C61.1979 16.7214 61.3418 16.4989 61.5306 16.3296C61.7218 16.1583 61.941 16.0343 62.1892 15.9575C62.4374 15.8787 62.6981 15.8394 62.9717 15.8394C63.153 15.8394 63.3447 15.861 63.5476 15.9043C63.7526 15.9457 63.9435 16.0225 64.1206 16.1347C64.2998 16.2469 64.4466 16.4074 64.5605 16.6161C64.6749 16.8228 64.7319 17.0915 64.7319 17.4223V20.4345H63.8695V19.8143H63.8341C63.7772 19.9285 63.6915 20.0407 63.5772 20.151C63.4632 20.2612 63.3164 20.3528 63.1372 20.4256C62.958 20.4985 62.7435 20.5349 62.4936 20.5349ZM62.6853 19.8261C62.9293 19.8261 63.1381 19.7779 63.3115 19.6814C63.4865 19.585 63.6196 19.459 63.7102 19.3034C63.8025 19.1459 63.8491 18.9776 63.8491 18.7984V18.2137C63.8175 18.2452 63.7564 18.2748 63.6657 18.3023C63.5772 18.3279 63.4757 18.3506 63.3618 18.3702C63.2474 18.3879 63.1364 18.4047 63.0279 18.4204C62.9198 18.4342 62.8291 18.446 62.7564 18.4559C62.585 18.4775 62.4283 18.514 62.2865 18.5652C62.1468 18.6163 62.0345 18.6901 61.9501 18.7866C61.8674 18.8811 61.8262 19.0071 61.8262 19.1646C61.8262 19.3832 61.9069 19.5485 62.0682 19.6608C62.2295 19.771 62.4354 19.8261 62.6853 19.8261ZM66.2204 22.1355C66.0886 22.1355 65.9685 22.1247 65.8604 22.1031C65.7518 22.0833 65.6712 22.0617 65.6179 22.0381L65.8308 21.3146C65.9922 21.3578 66.136 21.3766 66.262 21.3706C66.388 21.3647 66.499 21.3175 66.5955 21.2289C66.6941 21.1403 66.7805 20.9956 66.8554 20.7948L66.9647 20.4935L65.3053 15.8984H66.25L67.3988 19.4186H67.4462L68.5951 15.8984H69.5427L67.6737 21.0399C67.5868 21.2761 67.4766 21.476 67.3427 21.6394C67.2088 21.8048 67.0496 21.9288 66.8645 22.0115C66.6795 22.0942 66.4645 22.1355 66.2204 22.1355ZM72.0459 20.5261C71.6205 20.5261 71.2496 20.4286 70.9328 20.2337C70.6155 20.0388 70.3694 19.7661 70.1943 19.4156C70.0193 19.0652 69.9315 18.6557 69.9315 18.1871C69.9315 17.7166 70.0193 17.3051 70.1943 16.9527C70.3694 16.6003 70.6155 16.3266 70.9328 16.1317C71.2496 15.9368 71.6205 15.8394 72.0459 15.8394C72.4713 15.8394 72.8422 15.9368 73.1594 16.1317C73.4763 16.3266 73.7224 16.6003 73.8975 16.9527C74.073 17.3051 74.1603 17.7166 74.1603 18.1871C74.1603 18.6557 74.073 19.0652 73.8975 19.4156C73.7224 19.7661 73.4763 20.0388 73.1594 20.2337C72.8422 20.4286 72.4713 20.5261 72.0459 20.5261ZM72.0488 19.7848C72.3245 19.7848 72.5528 19.712 72.7341 19.5663C72.9154 19.4206 73.0492 19.2267 73.1357 18.9845C73.2243 18.7423 73.2688 18.4755 73.2688 18.1842C73.2688 17.8947 73.2243 17.629 73.1357 17.3868C73.0492 17.1427 72.9154 16.9468 72.7341 16.7991C72.5528 16.6515 72.3245 16.5776 72.0488 16.5776C71.7715 16.5776 71.5411 16.6515 71.3577 16.7991C71.1769 16.9468 71.0417 17.1427 70.9532 17.3868C70.8667 17.629 70.8234 17.8947 70.8234 18.1842C70.8234 18.4755 70.8667 18.7423 70.9532 18.9845C71.0417 19.2267 71.1769 19.4206 71.3577 19.5663C71.5411 19.712 71.7715 19.7848 72.0488 19.7848ZM77.9362 18.5533V15.8984H78.8223V20.4345H77.9541V19.649H77.9067C77.8024 19.8911 77.6352 20.0929 77.4048 20.2544C77.1766 20.4138 76.8917 20.4935 76.5512 20.4935C76.2601 20.4935 76.0019 20.4296 75.7778 20.3016C75.5553 20.1717 75.3799 19.9797 75.2518 19.7258C75.1258 19.4718 75.063 19.1578 75.063 18.7837V15.8984H75.9458V18.6773C75.9458 18.9865 76.0314 19.2326 76.2027 19.4156C76.374 19.5988 76.5965 19.6903 76.8701 19.6903C77.0356 19.6903 77.1998 19.649 77.3633 19.5663C77.5287 19.4836 77.6656 19.3586 77.7741 19.1912C77.8843 19.0239 77.9383 18.8112 77.9362 18.5533ZM82.0432 15.8984V16.6072H79.5654V15.8984H82.0432ZM80.2298 14.8117H81.1126V19.1026C81.1126 19.2739 81.1384 19.4028 81.1895 19.4895C81.2407 19.5742 81.3068 19.6322 81.3874 19.6637C81.4702 19.6932 81.5596 19.708 81.6561 19.708C81.7272 19.708 81.7891 19.7031 81.8423 19.6932C81.8956 19.6834 81.9367 19.6755 81.9662 19.6696L82.1259 20.3991C82.0743 20.4187 82.0016 20.4385 81.9072 20.4581C81.8128 20.4798 81.6947 20.4916 81.5529 20.4935C81.3205 20.4975 81.1039 20.4562 80.903 20.3696C80.7022 20.2829 80.54 20.149 80.4157 19.9679C80.2918 19.7868 80.2298 19.5594 80.2298 19.2857V14.8117Z" fill="#060815"/>
<path d="M11.2518 51.2706C10.9273 51.2706 10.6375 51.2149 10.3823 51.103C10.1288 50.9912 9.92793 50.8361 9.7799 50.6373C9.63341 50.4373 9.55466 50.2057 9.54364 49.9429H10.2855C10.2949 50.0864 10.3429 50.2107 10.4296 50.3163C10.5178 50.4203 10.6328 50.5005 10.7745 50.5571C10.9163 50.614 11.0738 50.6423 11.247 50.6423C11.4376 50.6423 11.6061 50.6091 11.7526 50.5429C11.9007 50.4768 12.0164 50.3845 12.0999 50.2664C12.1834 50.1467 12.2251 50.009 12.2251 49.8531C12.2251 49.691 12.1834 49.5483 12.0999 49.4257C12.018 49.3009 11.8975 49.2032 11.7384 49.1325C11.5809 49.0618 11.3904 49.0261 11.1667 49.0261H10.758V48.4311H11.1667C11.3462 48.4311 11.5038 48.3986 11.6392 48.3342C11.7762 48.2693 11.8833 48.1795 11.9605 48.0647C12.0377 47.9483 12.0763 47.8119 12.0763 47.656C12.0763 47.5063 12.0424 47.3766 11.9747 47.266C11.9085 47.1541 11.814 47.0668 11.6912 47.004C11.5699 46.9408 11.4266 46.9092 11.2612 46.9092C11.1037 46.9092 10.9564 46.9387 10.8194 46.9969C10.6839 47.0535 10.5737 47.1354 10.4886 47.2427C10.4036 47.3479 10.3579 47.4747 10.3516 47.6227H9.64522C9.65312 47.3616 9.7303 47.1317 9.87674 46.9329C10.0248 46.7346 10.2201 46.5795 10.4627 46.4676C10.7052 46.3558 10.9746 46.3 11.2707 46.3C11.5809 46.3 11.8487 46.3603 12.0739 46.4818C12.3007 46.6015 12.4755 46.7612 12.5984 46.9612C12.7228 47.1616 12.7843 47.3803 12.7827 47.6182C12.7843 47.8893 12.7086 48.1192 12.5559 48.308C12.4047 48.4972 12.2031 48.624 11.9511 48.6884V48.7263C12.2724 48.7749 12.5212 48.9026 12.6976 49.1088C12.8756 49.3151 12.9638 49.5712 12.9622 49.8768C12.9638 50.1429 12.8898 50.3816 12.7402 50.5924C12.5921 50.8037 12.3897 50.97 12.133 51.091C11.8762 51.2107 11.5825 51.2706 11.2518 51.2706ZM15.5398 51.2847C15.1665 51.2831 14.8476 51.185 14.5829 50.9895C14.3184 50.7941 14.1159 50.5101 13.9758 50.1367C13.8356 49.7633 13.7655 49.3138 13.7655 48.7878C13.7655 48.2631 13.8356 47.8148 13.9758 47.4435C14.1175 47.0718 14.3207 46.7882 14.5853 46.5928C14.8515 46.3973 15.1696 46.3 15.5398 46.3C15.9099 46.3 16.2273 46.3982 16.4919 46.5953C16.7565 46.7903 16.9589 47.0739 17.0991 47.4456C17.2408 47.8157 17.3117 48.2631 17.3117 48.7878C17.3117 49.3151 17.2416 49.7658 17.1014 50.1392C16.9612 50.5105 16.7589 50.7949 16.4942 50.992C16.2296 51.187 15.9115 51.2847 15.5398 51.2847ZM15.5398 50.654C15.8674 50.654 16.1233 50.4943 16.3076 50.1745C16.4934 49.8548 16.5864 49.3924 16.5864 48.7878C16.5864 48.3862 16.5438 48.0464 16.4588 47.7695C16.3753 47.4905 16.2549 47.2797 16.0973 47.1362C15.9414 46.9911 15.7556 46.9188 15.5398 46.9188C15.2138 46.9188 14.9578 47.0797 14.772 47.4007C14.5861 47.7221 14.4924 48.1845 14.4908 48.7878C14.4908 49.1907 14.5325 49.5317 14.616 49.8107C14.7011 50.0876 14.8216 50.298 14.9775 50.4415C15.1334 50.5833 15.3208 50.654 15.5398 50.654ZM18.2159 51.2045V46.3662H18.946V48.6764H19.005L21.0344 46.3662H21.9535L20.002 48.5442L21.9606 51.2045H21.0817L19.5177 49.0427L18.946 49.6997V51.2045H18.2159Z" fill="#1D1D21"/>
<path d="M9.56726 83.6372V83.1079L11.2045 81.4118C11.3793 81.2276 11.5235 81.0659 11.6369 80.9274C11.7518 80.7873 11.8377 80.6542 11.8944 80.5282C11.9511 80.4023 11.9794 80.2684 11.9794 80.1266C11.9794 79.9657 11.9416 79.8272 11.866 79.7108C11.7904 79.5927 11.6873 79.502 11.5565 79.4388C11.4258 79.3744 11.2785 79.3419 11.1147 79.3419C10.9415 79.3419 10.7903 79.3777 10.6611 79.4484C10.532 79.5195 10.4328 79.6193 10.3634 79.7486C10.2941 79.8775 10.2595 80.0289 10.2595 80.2022H9.56256C9.56256 79.9074 9.63025 79.6501 9.76572 79.4297C9.90115 79.2089 10.087 79.038 10.3233 78.917C10.5595 78.7939 10.8281 78.7328 11.1289 78.7328C11.4329 78.7328 11.7006 78.7931 11.9322 78.9145C12.1653 79.0342 12.3472 79.1981 12.4779 79.406C12.6086 79.6122 12.674 79.8455 12.674 80.1054C12.674 80.285 12.6402 80.4605 12.5724 80.6322C12.5063 80.8039 12.3905 80.9952 12.2251 81.206C12.0597 81.4156 11.8298 81.67 11.5353 81.9694L10.5737 82.9757V83.011H12.752V83.6372H9.56726ZM15.3319 83.7175C14.9586 83.7158 14.6397 83.6177 14.375 83.4223C14.1105 83.2268 13.908 82.9428 13.7679 82.5694C13.6277 82.196 13.5576 81.7466 13.5576 81.2206C13.5576 80.6958 13.6277 80.2476 13.7679 79.8763C13.9096 79.5045 14.1128 79.2209 14.3774 79.0255C14.6436 78.8301 14.9617 78.7328 15.3319 78.7328C15.702 78.7328 16.0194 78.8309 16.284 79.028C16.5486 79.223 16.751 79.5066 16.8912 79.8783C17.0329 80.2484 17.1038 80.6958 17.1038 81.2206C17.1038 81.7478 17.0337 82.1985 16.8935 82.5719C16.7533 82.9433 16.551 83.2277 16.2863 83.4248C16.0217 83.6198 15.7036 83.7175 15.3319 83.7175ZM15.3319 83.0867C15.6595 83.0867 15.9154 82.927 16.0997 82.6073C16.2855 82.2875 16.3785 81.8251 16.3785 81.2206C16.3785 80.8189 16.3359 80.4792 16.2509 80.2022C16.1674 79.9232 16.047 79.7124 15.8894 79.569C15.7335 79.4239 15.5477 79.3515 15.3319 79.3515C15.0059 79.3515 14.7499 79.5124 14.5641 79.8334C14.3782 80.1549 14.2845 80.6172 14.2829 81.2206C14.2829 81.6235 14.3246 81.9644 14.4081 82.2434C14.4932 82.5204 14.6137 82.7308 14.7696 82.8742C14.9255 83.016 15.1129 83.0867 15.3319 83.0867ZM18.008 83.6372V78.7989H18.7381V81.1091H18.7971L20.8265 78.7989H21.7456L19.7941 80.9769L21.7527 83.6372H20.8738L19.3098 81.4755L18.7381 82.1324V83.6372H18.008Z" fill="#1D1D21"/>
<path d="M11.403 111.232V116.07H10.6706V111.964H10.6423L9.48468 112.72V112.02L10.6919 111.232H11.403ZM14.3964 116.15C14.0231 116.149 13.7042 116.05 13.4395 115.855C13.175 115.66 12.9726 115.376 12.8324 115.002C12.6922 114.629 12.6221 114.179 12.6221 113.653C12.6221 113.129 12.6922 112.68 12.8324 112.309C12.9741 111.937 13.1773 111.654 13.4419 111.458C13.7081 111.263 14.0263 111.166 14.3964 111.166C14.7665 111.166 15.0839 111.264 15.3485 111.461C15.6131 111.656 15.8155 111.939 15.9557 112.311C16.0974 112.681 16.1683 113.129 16.1683 113.653C16.1683 114.181 16.0982 114.631 15.958 115.005C15.8178 115.376 15.6155 115.66 15.3508 115.858C15.0862 116.053 14.7681 116.15 14.3964 116.15ZM14.3964 115.519C14.724 115.519 14.9799 115.36 15.1642 115.04C15.3501 114.72 15.443 114.258 15.443 113.653C15.443 113.252 15.4005 112.912 15.3154 112.635C15.2319 112.356 15.1115 112.145 14.954 112.002C14.798 111.857 14.6122 111.784 14.3964 111.784C14.0704 111.784 13.8144 111.945 13.6286 112.266C13.4427 112.588 13.349 113.05 13.3474 113.653C13.3474 114.056 13.3892 114.397 13.4726 114.676C13.5577 114.953 13.6782 115.164 13.8341 115.307C13.99 115.449 14.1774 115.519 14.3964 115.519ZM17.0725 116.07V111.232H17.8026V113.542H17.8617L19.891 111.232H20.8101L18.8586 113.41L20.8172 116.07H19.9383L18.3743 113.908L17.8026 114.565V116.07H17.0725Z" fill="#1D1D21"/>
<path d="M35.3473 125.218V124.689L36.9846 122.993C37.1594 122.808 37.3036 122.647 37.4169 122.508C37.5319 122.368 37.6177 122.235 37.6745 122.109C37.7312 121.983 37.7595 121.849 37.7595 121.707C37.7595 121.546 37.7217 121.408 37.6461 121.292C37.5705 121.173 37.4673 121.083 37.3366 121.02C37.2059 120.955 37.0586 120.923 36.8948 120.923C36.7215 120.923 36.5704 120.959 36.4412 121.029C36.3121 121.1 36.2129 121.2 36.1435 121.329C36.0742 121.458 36.0396 121.61 36.0396 121.783H35.3427C35.3427 121.488 35.4103 121.231 35.5458 121.011C35.6812 120.79 35.8671 120.619 36.1034 120.498C36.3396 120.375 36.6082 120.314 36.909 120.314C37.213 120.314 37.4807 120.374 37.7123 120.495C37.9454 120.615 38.1273 120.779 38.258 120.987C38.3887 121.193 38.4541 121.426 38.4541 121.686C38.4541 121.866 38.4203 122.041 38.3525 122.213C38.2864 122.385 38.1706 122.576 38.0052 122.787C37.8398 122.996 37.6099 123.251 37.3154 123.55L36.3538 124.557V124.592H38.5321V125.218H35.3473ZM41.112 125.298C40.7387 125.297 40.4197 125.199 40.1551 125.003C39.8905 124.808 39.6881 124.524 39.548 124.15C39.4078 123.777 39.3377 123.327 39.3377 122.801C39.3377 122.277 39.4078 121.828 39.548 121.457C39.6897 121.085 39.8929 120.802 40.1575 120.606C40.4237 120.411 40.7418 120.314 41.112 120.314C41.4821 120.314 41.7995 120.412 42.0641 120.609C42.3287 120.804 42.5311 121.087 42.6713 121.459C42.813 121.829 42.8837 122.277 42.8837 122.801C42.8837 123.329 42.8139 123.779 42.6737 124.153C42.5336 124.524 42.331 124.808 42.0664 125.006C41.8018 125.201 41.4837 125.298 41.112 125.298ZM41.112 124.668C41.4396 124.668 41.6955 124.508 41.8798 124.188C42.0656 123.868 42.1586 123.406 42.1586 122.801C42.1586 122.4 42.116 122.06 42.031 121.783C41.9475 121.504 41.827 121.293 41.6695 121.15C41.5136 121.005 41.3277 120.932 41.112 120.932C40.7859 120.932 40.53 121.093 40.3441 121.414C40.1583 121.736 40.0646 122.198 40.063 122.801C40.063 123.204 40.1047 123.545 40.1882 123.824C40.2733 124.101 40.3938 124.312 40.5497 124.455C40.7056 124.597 40.893 124.668 41.112 124.668ZM45.5578 120.38V125.218H44.8251V121.112H44.7969L43.6393 121.868V121.168L44.8463 120.38H45.5578ZM48.5512 125.298C48.1778 125.297 47.8589 125.199 47.594 125.003C47.3295 124.808 47.127 124.524 46.9869 124.15C46.8468 123.777 46.7769 123.327 46.7769 122.801C46.7769 122.277 46.8468 121.828 46.9869 121.457C47.1287 121.085 47.332 120.802 47.5965 120.606C47.8626 120.411 48.1807 120.314 48.5512 120.314C48.9213 120.314 49.2385 120.412 49.503 120.609C49.7678 120.804 49.9699 121.087 50.1105 121.459C50.2518 121.829 50.3229 122.277 50.3229 122.801C50.3229 123.329 50.2527 123.779 50.1125 124.153C49.9724 124.524 49.7699 124.808 49.5055 125.006C49.241 125.201 48.9229 125.298 48.5512 125.298ZM48.5512 124.668C48.8784 124.668 49.1346 124.508 49.3188 124.188C49.5046 123.868 49.5978 123.406 49.5978 122.801C49.5978 122.4 49.5549 122.06 49.4701 121.783C49.3865 121.504 49.266 121.293 49.1084 121.15C48.9524 121.005 48.767 120.932 48.5512 120.932C48.2248 120.932 47.9691 121.093 47.7832 121.414C47.5973 121.736 47.5038 122.198 47.5021 122.801C47.5021 123.204 47.5437 123.545 47.6273 123.824C47.7125 124.101 47.8327 124.312 47.9886 124.455C48.1445 124.597 48.3321 124.668 48.5512 124.668Z" fill="#1D1D21"/>
<path d="M61.1273 125.218V124.689L62.7647 122.993C62.9393 122.808 63.0836 122.647 63.1971 122.508C63.3119 122.368 63.398 122.235 63.4545 122.109C63.5111 121.983 63.5394 121.849 63.5394 121.707C63.5394 121.546 63.5019 121.408 63.4263 121.292C63.3506 121.173 63.2475 121.083 63.1165 121.02C62.9859 120.955 62.8387 120.923 62.6749 120.923C62.5015 120.923 62.3506 120.959 62.2212 121.029C62.0919 121.1 61.993 121.2 61.9235 121.329C61.8541 121.458 61.8196 121.61 61.8196 121.783H61.1227C61.1227 121.488 61.1905 121.231 61.326 121.011C61.4611 120.79 61.647 120.619 61.8836 120.498C62.1198 120.375 62.3884 120.314 62.689 120.314C62.993 120.314 63.2608 120.374 63.4924 120.495C63.7252 120.615 63.9073 120.779 64.0379 120.987C64.1689 121.193 64.2342 121.426 64.2342 121.686C64.2342 121.866 64.2001 122.041 64.1327 122.213C64.0666 122.385 63.9506 122.576 63.7851 122.787C63.62 122.996 63.3901 123.251 63.0953 123.55L62.1339 124.557V124.592H64.3119V125.218H61.1273ZM66.892 125.298C66.5186 125.297 66.1997 125.199 65.9352 125.003C65.6704 124.808 65.4683 124.524 65.3282 124.15C65.1876 123.777 65.1178 123.327 65.1178 122.801C65.1178 122.277 65.1876 121.828 65.3282 121.457C65.4699 121.085 65.6729 120.802 65.9377 120.606C66.2038 120.411 66.5219 120.314 66.892 120.314C67.2621 120.314 67.5793 120.412 67.8442 120.609C68.1087 120.804 68.3112 121.087 68.4513 121.459C68.5931 121.829 68.6638 122.277 68.6638 122.801C68.6638 123.329 68.5939 123.779 68.4538 124.153C68.3137 124.524 68.1112 124.808 67.8463 125.006C67.5818 125.201 67.2637 125.298 66.892 125.298ZM66.892 124.668C67.2197 124.668 67.4754 124.508 67.66 124.188C67.8459 123.868 67.9386 123.406 67.9386 122.801C67.9386 122.4 67.8962 122.06 67.8109 121.783C67.7274 121.504 67.6072 121.293 67.4496 121.15C67.2937 121.005 67.1078 120.932 66.892 120.932C66.566 120.932 66.3099 121.093 66.124 121.414C65.9381 121.736 65.8446 122.198 65.8429 122.801C65.8429 123.204 65.8849 123.545 65.9681 123.824C66.0533 124.101 66.1739 124.312 66.3298 124.455C66.4858 124.597 66.6729 124.668 66.892 124.668ZM71.3378 120.38V125.218H70.6052V121.112H70.5769L69.4193 121.868V121.168L70.6264 120.38H71.3378ZM74.2435 125.284C73.9474 125.284 73.6813 125.228 73.4451 125.114C73.2106 124.999 73.0231 124.842 72.883 124.642C72.7428 124.442 72.668 124.213 72.6584 123.956H73.367C73.3844 124.164 73.4767 124.335 73.6435 124.469C73.8106 124.603 74.0106 124.67 74.2435 124.67C74.4293 124.67 74.594 124.628 74.7375 124.542C74.8822 124.456 74.9957 124.337 75.0776 124.186C75.1612 124.034 75.2027 123.862 75.2027 123.668C75.2027 123.471 75.1603 123.296 75.0751 123.142C74.9903 122.987 74.873 122.866 74.7233 122.778C74.5753 122.69 74.4052 122.645 74.2127 122.643C74.0663 122.643 73.9191 122.668 73.7711 122.719C73.6231 122.769 73.5033 122.835 73.4119 122.917L72.7432 122.818L73.0152 120.38H75.6755V121.006H73.6223L73.4688 122.359H73.4971C73.5915 122.268 73.7167 122.192 73.8726 122.13C74.0302 122.069 74.1986 122.038 74.3782 122.038C74.673 122.038 74.935 122.108 75.1649 122.248C75.3965 122.388 75.5786 122.58 75.7109 122.823C75.8448 123.063 75.9109 123.341 75.9092 123.654C75.9109 123.967 75.8398 124.247 75.6967 124.493C75.5549 124.739 75.3578 124.932 75.1059 125.074C74.8555 125.214 74.5682 125.284 74.2435 125.284Z" fill="#1D1D21"/>
<path d="M86.4915 125.218V124.689L88.129 122.993C88.3036 122.808 88.4479 122.647 88.5614 122.508C88.6762 122.368 88.7622 122.235 88.8188 122.109C88.8753 121.983 88.9036 121.849 88.9036 121.707C88.9036 121.546 88.8662 121.408 88.7905 121.292C88.7148 121.173 88.6117 121.083 88.4807 121.02C88.3502 120.955 88.203 120.923 88.0391 120.923C87.8658 120.923 87.7148 120.959 87.5855 121.029C87.4562 121.1 87.3572 121.2 87.2878 121.329C87.2183 121.458 87.1838 121.61 87.1838 121.783H86.4869C86.4869 121.488 86.5547 121.231 86.6903 121.011C86.8254 120.79 87.0113 120.619 87.2479 120.498C87.484 120.375 87.7527 120.314 88.0533 120.314C88.3572 120.314 88.625 120.374 88.8566 120.495C89.0895 120.615 89.2716 120.779 89.4022 120.987C89.5331 121.193 89.5984 121.426 89.5984 121.686C89.5984 121.866 89.5643 122.041 89.497 122.213C89.4309 122.385 89.3148 122.576 89.1494 122.787C88.9843 122.996 88.7543 123.251 88.4595 123.55L87.4982 124.557V124.592H89.6762V125.218H86.4915ZM92.2563 125.298C91.8829 125.297 91.5639 125.199 91.2995 125.003C91.0346 124.808 90.8325 124.524 90.6924 124.15C90.5519 123.777 90.482 123.327 90.482 122.801C90.482 122.277 90.5519 121.828 90.6924 121.457C90.8342 121.085 91.0371 120.802 91.302 120.606C91.5681 120.411 91.8862 120.314 92.2563 120.314C92.6263 120.314 92.9436 120.412 93.2085 120.609C93.4729 120.804 93.6754 121.087 93.8155 121.459C93.9573 121.829 94.028 122.277 94.028 122.801C94.028 123.329 93.9582 123.779 93.818 124.153C93.6779 124.524 93.4754 124.808 93.2105 125.006C92.9461 125.201 92.628 125.298 92.2563 125.298ZM92.2563 124.668C92.5839 124.668 92.8396 124.508 93.0243 124.188C93.2101 123.868 93.3029 123.406 93.3029 122.801C93.3029 122.4 93.2604 122.06 93.1752 121.783C93.0916 121.504 92.9715 121.293 92.8139 121.15C92.6579 121.005 92.4721 120.932 92.2563 120.932C91.9303 120.932 91.6741 121.093 91.4883 121.414C91.3024 121.736 91.2088 122.198 91.2072 122.801C91.2072 123.204 91.2492 123.545 91.3323 123.824C91.4176 124.101 91.5382 124.312 91.6941 124.455C91.85 124.597 92.0371 124.668 92.2563 124.668ZM94.8663 125.218V124.689L96.5033 122.993C96.6784 122.808 96.8222 122.647 96.9358 122.508C97.0509 122.368 97.1366 122.235 97.1936 122.109C97.2501 121.983 97.2784 121.849 97.2784 121.707C97.2784 121.546 97.2405 121.408 97.1649 121.292C97.0896 121.173 96.9861 121.083 96.8555 121.02C96.7249 120.955 96.5773 120.923 96.4139 120.923C96.2405 120.923 96.0892 120.959 95.9603 121.029C95.831 121.1 95.7316 121.2 95.6626 121.329C95.5931 121.458 95.5586 121.61 95.5586 121.783H94.8617C94.8617 121.488 94.9291 121.231 95.0646 121.011C95.2002 120.79 95.386 120.619 95.6222 120.498C95.8584 120.375 96.127 120.314 96.4281 120.314C96.732 120.314 96.9998 120.374 97.231 120.495C97.4643 120.615 97.6464 120.779 97.7769 120.987C97.9075 121.193 97.9732 121.426 97.9732 121.686C97.9732 121.866 97.9391 122.041 97.8713 122.213C97.8052 122.385 97.6896 122.576 97.5241 122.787C97.3586 122.996 97.1287 123.251 96.8343 123.55L95.8725 124.557V124.592H98.051V125.218H94.8663ZM100.631 125.284C100.306 125.284 100.016 125.228 99.7616 125.117C99.5079 125.005 99.3071 124.85 99.1591 124.651C99.0127 124.451 98.9337 124.219 98.9229 123.956H99.6647C99.6739 124.1 99.7221 124.224 99.8086 124.33C99.8967 124.434 100.012 124.514 100.154 124.571C100.295 124.628 100.453 124.656 100.626 124.656C100.817 124.656 100.985 124.623 101.132 124.557C101.28 124.49 101.396 124.398 101.479 124.28C101.562 124.16 101.604 124.023 101.604 123.867C101.604 123.705 101.562 123.562 101.479 123.439C101.397 123.314 101.277 123.217 101.118 123.146C100.96 123.075 100.77 123.04 100.546 123.04H100.137V122.445H100.546C100.725 122.445 100.883 122.412 101.018 122.348C101.155 122.283 101.263 122.193 101.34 122.078C101.417 121.962 101.456 121.825 101.456 121.67C101.456 121.52 101.421 121.39 101.354 121.28C101.288 121.168 101.193 121.08 101.07 121.018C100.949 120.954 100.806 120.923 100.64 120.923C100.483 120.923 100.335 120.952 100.199 121.011C100.063 121.067 99.9529 121.149 99.8676 121.256C99.7828 121.361 99.7371 121.488 99.7308 121.636H99.0244C99.0323 121.375 99.1092 121.145 99.256 120.946C99.404 120.748 99.5994 120.593 99.8418 120.481C100.084 120.369 100.354 120.314 100.65 120.314C100.96 120.314 101.228 120.374 101.453 120.495C101.68 120.615 101.855 120.775 101.977 120.975C102.102 121.175 102.163 121.394 102.162 121.632C102.163 121.903 102.088 122.133 101.935 122.322C101.784 122.511 101.582 122.638 101.33 122.702V122.74C101.651 122.788 101.9 122.916 102.077 123.122C102.255 123.329 102.343 123.585 102.341 123.89C102.343 124.156 102.269 124.395 102.119 124.606C101.971 124.817 101.769 124.984 101.512 125.105C101.255 125.224 100.962 125.284 100.631 125.284Z" fill="#1D1D21"/>
</g>
<defs>
<clipPath id="clip0_116_287">
<rect width="118.505" height="133.89" fill="white" transform="translate(0.785706 0.0596924)"/>
</clipPath>
</defs>
</svg>
