<svg width="158" height="142" viewBox="0 0 158 142" fill="none" xmlns="http://www.w3.org/2000/svg">
<g clip-path="url(#clip0_116_218)">
<mask id="mask0_116_218" style="mask-type:luminance" maskUnits="userSpaceOnUse" x="11" y="1" width="157" height="137">
<path d="M45.1713 137.396L167.233 48.0238L133.401 1.81587L11.3386 91.1878L45.1713 137.396Z" fill="white"/>
</mask>
<g mask="url(#mask0_116_218)">
<g opacity="0.2">
<path d="M45.1717 137.396L69.093 106.298L60.3753 109.269L45.1717 137.396Z" fill="#3F53D7"/>
<path d="M60.3751 109.269L54.4003 105.304L45.1715 137.396L60.3751 109.269Z" fill="#D3DAF4"/>
<path d="M59.6156 109.371L45.1715 137.396L46.5261 116.167L59.6156 109.371Z" fill="#3F53D7"/>
<path d="M133.605 2.6471C118.986 11.1061 106.622 24.4052 102 40.6512C99.9557 47.8213 99.561 55.9717 103.22 62.5078C104.688 65.1208 107.203 67.5823 110.19 67.389C111.665 67.2172 113.056 66.6157 114.191 65.659C116.028 64.2387 117.504 62.4044 118.497 60.3053C119.491 58.2067 119.974 55.9029 119.909 53.5814C119.843 51.2603 119.23 48.9874 118.119 46.9485C117.008 44.9091 115.431 43.1614 113.517 41.847C109.637 39.1934 104.618 38.5484 99.9968 39.3543C95.3758 40.1607 91.0703 42.3162 87.1329 44.8749C67.8252 57.3908 56.2762 80.9455 58.1247 103.881" stroke="black" stroke-width="0.653912" stroke-linecap="round" stroke-linejoin="round" stroke-dasharray="1.85 1.85"/>
</g>
</g>
</g>
<defs>
<clipPath id="clip0_116_218">
<rect width="140.065" height="121.201" fill="white" transform="translate(157.044 120.817) rotate(171.571)"/>
</clipPath>
</defs>
</svg>
