<svg width="146" height="128" viewBox="0 0 146 128" fill="none" xmlns="http://www.w3.org/2000/svg">
<g clip-path="url(#clip0_116_228)">
<mask id="mask0_116_228" style="mask-type:luminance" maskUnits="userSpaceOnUse" x="2" y="5" width="162" height="118">
<path d="M27.3028 5.59617L163.969 70.4724L139.409 122.209L2.74321 57.3326L27.3028 5.59617Z" fill="white"/>
</mask>
<g mask="url(#mask0_116_228)">
<g opacity="0.2">
<path d="M27.3028 5.59593L56.6353 31.6518L47.515 30.3699L27.3028 5.59593Z" fill="#3F53D7"/>
<path d="M47.5149 30.3701L42.3904 35.3859L27.3027 5.5961L47.5149 30.3701Z" fill="#D3DAF4"/>
<path d="M46.7497 30.412L27.3028 5.59604L32.6174 26.1934L46.7497 30.412Z" fill="#3F53D7"/>
<path d="M139.453 121.354C123.506 115.789 108.867 105.046 101.278 89.9563C97.9242 83.2973 96.0069 75.3658 98.3743 68.2592C99.3253 65.4172 101.334 62.5274 104.304 62.1566C105.785 62.0487 107.265 62.3783 108.559 63.105C110.63 64.1552 112.423 65.6801 113.793 67.5554C115.163 69.4302 116.07 71.6023 116.442 73.895C116.813 76.1872 116.637 78.5347 115.928 80.7459C115.22 82.9576 113.999 84.9701 112.366 86.6204C109.052 89.955 104.244 91.5305 99.5536 91.6062C94.8634 91.6814 90.2298 90.3722 85.8822 88.5979C64.5687 79.9279 48.8043 58.9591 46.3155 36.0839" stroke="black" stroke-width="0.653912" stroke-linecap="round" stroke-linejoin="round" stroke-dasharray="1.85 1.85"/>
</g>
</g>
</g>
<defs>
<clipPath id="clip0_116_228">
<rect width="140.065" height="121.201" fill="white" transform="matrix(-0.999132 0.0416599 0.0416599 0.999132 140.299 0.884766)"/>
</clipPath>
</defs>
</svg>
