<svg width="67" height="24" viewBox="0 0 67 24" fill="none" xmlns="http://www.w3.org/2000/svg">
<g clip-path="url(#clip0_116_396)">
<path d="M13.5023 8.55482C11.0992 8.55482 9.22155 10.341 9.22155 12.7323C9.22155 15.1235 11.0518 16.8944 13.5023 16.8944C15.9528 16.8944 17.8149 15.0929 17.8149 12.717C17.8149 10.3563 15.9846 8.55482 13.5023 8.55482ZM13.5185 15.1711C12.15 15.1711 11.1472 14.1305 11.1472 12.7329C11.1472 11.3194 12.1338 10.2793 13.5023 10.2793C14.887 10.2793 15.8892 11.3353 15.8892 12.7329C15.8892 14.1305 14.887 15.1711 13.5185 15.1711ZM18.3397 10.3722H19.5333V16.7398H21.4428V8.71004H18.3397V10.3722ZM4.41597 10.2787C5.41876 10.2787 6.21437 10.8843 6.51642 11.7851H8.5376C8.17132 9.8595 6.54825 8.55482 4.43218 8.55482C2.0291 8.55482 0.151428 10.341 0.151428 12.7329C0.151428 15.1247 1.98166 16.895 4.43218 16.895C6.5008 16.895 8.1557 15.5904 8.52198 13.6489H6.51642C6.22999 14.5497 5.43436 15.1711 4.43159 15.1711C3.0469 15.1711 2.07653 14.1305 2.07653 12.7329C2.07714 11.3194 3.03189 10.2787 4.41597 10.2787ZM54.6213 11.9562L53.221 11.7545C52.5528 11.6616 52.0753 11.4441 52.0753 10.9314C52.0753 10.3722 52.6963 10.0929 53.5393 10.0929C54.4623 10.0929 55.0513 10.481 55.1785 11.1177H57.0245C56.8173 9.5026 55.5443 8.5554 53.5873 8.5554C51.5661 8.5554 50.2295 9.56494 50.2295 10.9937C50.2295 12.3601 51.1049 13.1527 52.8709 13.4008L54.2712 13.6025C54.9558 13.6953 55.3376 13.9599 55.3376 14.4568C55.3376 15.0935 54.6694 15.3575 53.7465 15.3575C52.6163 15.3575 51.9799 14.9071 51.8844 14.2239H50.0067C50.1821 15.7926 51.4389 16.895 53.7302 16.895C55.8151 16.895 57.1991 15.9631 57.1991 14.3633C57.1991 12.9345 56.1969 12.189 54.6213 11.9562ZM20.4881 5.40217C19.788 5.40217 19.2627 5.89899 19.2627 6.5822C19.2627 7.26541 19.7874 7.76224 20.4881 7.76224C21.1882 7.76224 21.7137 7.26541 21.7137 6.5822C21.7137 5.89899 21.1882 5.40217 20.4881 5.40217ZM48.5109 11.4593C48.5109 9.72015 47.429 8.5554 45.1375 8.5554C42.9734 8.5554 41.764 9.62726 41.5251 11.2735H43.4189C43.5143 10.6368 44.0236 10.1088 45.1057 10.1088C46.0767 10.1088 46.554 10.528 46.554 11.0407C46.554 11.7086 45.6784 11.8791 44.5965 11.9879C43.1325 12.1431 41.3185 12.64 41.3185 14.5038C41.3185 15.9484 42.4167 16.8797 44.1672 16.8797C45.5355 16.8797 46.3948 16.3206 46.8248 15.4351C46.8885 16.2271 47.4932 16.7398 48.3368 16.7398H49.4507V15.0782H48.5115V11.4593H48.5109ZM46.6332 13.4784C46.6332 14.5502 45.6784 15.3422 44.5165 15.3422C43.8003 15.3422 43.1957 15.0471 43.1957 14.4262C43.1957 13.6342 44.1665 13.4167 45.0577 13.3238C45.917 13.2462 46.3943 13.0598 46.6332 12.7023V13.4784ZM36.4967 8.55482C35.4303 8.55482 34.5392 8.9899 33.9028 9.71957V5.32455H31.9933V16.7398H33.8708V15.6838C34.5073 16.4447 35.4147 16.895 36.4967 16.895C38.788 16.895 40.5229 15.1247 40.5229 12.7329C40.5229 10.341 38.7563 8.55482 36.4967 8.55482ZM36.2103 15.1711C34.8418 15.1711 33.8391 14.1305 33.8391 12.7329C33.8391 11.3353 34.8575 10.2793 36.2259 10.2793C37.6106 10.2793 38.5809 11.32 38.5809 12.7329C38.5809 14.1305 37.5787 15.1711 36.2103 15.1711ZM27.4259 8.55482C26.1848 8.55482 25.373 9.05164 24.8957 9.75072V8.71004H23.0017V16.7392H24.9112V12.3754C24.9112 11.1483 25.7068 10.2787 26.8844 10.2787C27.9826 10.2787 28.6665 11.0395 28.6665 12.1426V16.7398H30.576V12.0032C30.5767 9.98356 29.5108 8.55482 27.4259 8.55482ZM66.3017 12.4689C66.3017 10.1705 64.5831 8.5554 62.2755 8.5554C59.825 8.5554 58.0267 10.3569 58.0267 12.7329C58.0267 15.2335 59.9522 16.895 62.3074 16.895C64.2967 16.895 65.8561 15.7456 66.2537 14.1152H64.2642C63.9778 14.8295 63.2777 15.2335 62.3386 15.2335C61.113 15.2335 60.19 14.4879 59.9834 13.1832H66.3011V12.4689H66.3017ZM60.0951 11.8474C60.3979 10.7291 61.2571 10.1858 62.2437 10.1858C63.3257 10.1858 64.1532 10.7914 64.3442 11.8474H60.0951Z" fill="black"/>
</g>
<defs>
<clipPath id="clip0_116_396">
<rect width="66.4688" height="23.141" fill="white" transform="translate(0.151489 0.503448)"/>
</clipPath>
</defs>
</svg>
