<svg width="82" height="24" viewBox="0 0 82 24" fill="none" xmlns="http://www.w3.org/2000/svg">
<g clip-path="url(#clip0_116_387)">
<path d="M23.1462 7.25923H26.8991C29.2916 7.25923 31.2681 8.61471 31.2681 11.7096V12.3599C31.2681 15.4783 29.4197 16.8807 26.9711 16.8807H23.1462V7.25923ZM25.2427 9.00646V15.1257H26.8511C28.2114 15.1257 29.1236 14.256 29.1236 12.3207V11.8114C29.1236 9.87616 28.1634 9.00646 26.7791 9.00646H25.2427ZM32.3803 9.10048H34.0607L34.3328 10.9104C34.6528 9.68028 35.469 9.02213 36.9494 9.02213H37.4695V11.0984H36.6053C34.9009 11.0984 34.4848 11.6782 34.4848 13.3236V16.9042H32.4123V9.10048H32.3803ZM37.8856 13.1591V12.9397C37.8856 10.3306 39.59 8.9046 41.9105 8.9046C44.279 8.9046 45.9354 10.3306 45.9354 12.9397V13.1591C45.9354 15.7211 44.327 17.1001 41.9105 17.1001C39.3419 17.0766 37.8856 15.729 37.8856 13.1591ZM43.8149 13.1356V12.9397C43.8149 11.4902 43.0707 10.6205 41.8865 10.6205C40.7262 10.6205 39.958 11.4197 39.958 12.9397V13.1356C39.958 14.538 40.7022 15.3372 41.8865 15.3372C43.0707 15.3137 43.8149 14.538 43.8149 13.1356ZM47.0236 9.10048H48.752L48.9521 10.5735C49.3682 9.58626 50.2564 8.9046 51.5687 8.9046C53.5931 8.9046 54.9294 10.3306 54.9294 12.971V13.1904C54.9294 15.7525 53.4491 17.108 51.5687 17.108C50.3124 17.108 49.4482 16.5517 49.0241 15.6585V19.5995H46.9996L47.0236 9.10048ZM52.8249 13.1356V12.9632C52.8249 11.4118 52.0088 10.644 50.9205 10.644C49.7602 10.644 48.9921 11.5137 48.9921 12.9632V13.1121C48.9921 14.491 49.7362 15.3607 50.8965 15.3607C52.0888 15.3372 52.8249 14.5929 52.8249 13.1356ZM57.9941 15.4626L57.8181 16.8886H56.0417V6.49139H58.0661V10.4795C58.5142 9.4609 59.4024 8.9046 60.6587 8.9046C62.5631 8.92811 63.9715 10.2131 63.9715 12.7986V13.0415C63.9715 15.6271 62.6352 17.108 60.6107 17.108C59.2744 17.0766 58.4102 16.4733 57.9941 15.4626ZM61.843 13.0415V12.8457C61.843 11.4197 61.0508 10.6205 59.9385 10.6205C58.8023 10.6205 58.0101 11.5137 58.0101 12.8692V13.0415C58.0101 14.491 58.7783 15.3372 59.9145 15.3372C61.1308 15.3372 61.843 14.5929 61.843 13.0415ZM64.8597 13.1591V12.9397C64.8597 10.3306 66.564 8.9046 68.8846 8.9046C71.2531 8.9046 72.9095 10.3306 72.9095 12.9397V13.1591C72.9095 15.7211 71.2771 17.1001 68.8846 17.1001C66.316 17.0766 64.8597 15.729 64.8597 13.1591ZM70.805 13.1356V12.9397C70.805 11.4902 70.0608 10.6205 68.8766 10.6205C67.7163 10.6205 66.9481 11.4197 66.9481 12.9397V13.1356C66.9481 14.538 67.6923 15.3372 68.8766 15.3372C70.0688 15.3137 70.805 14.538 70.805 13.1356ZM75.6221 12.8457L72.8295 9.10048H75.222L76.8304 11.4432L78.4627 9.10048H80.8313L77.9986 12.8222L80.9833 16.8886H78.6388L76.8144 14.303L75.0379 16.8886H72.5894L75.6221 12.8457Z" fill="black"/>
<path d="M10.2472 7.25931L5.6062 10.1583L10.2472 13.0573L5.6062 15.9563L0.965149 13.0416L5.6062 10.1426L0.965149 7.25931L5.6062 4.36032L10.2472 7.25931ZM5.58219 16.8886L10.2232 13.9897L14.8643 16.8886L10.2232 19.7876L5.58219 16.8886ZM10.2472 13.0416L14.8883 10.1426L10.2472 7.25931L14.8643 4.36032L19.5053 7.25931L14.8643 10.1583L19.5053 13.0573L14.8643 15.9563L10.2472 13.0416Z" fill="black"/>
</g>
<defs>
<clipPath id="clip0_116_387">
<rect width="80.2548" height="23.141" fill="white" transform="translate(0.96521 0.50354)"/>
</clipPath>
</defs>
</svg>
