<svg width="15" height="18" viewBox="0 0 15 18" fill="none" xmlns="http://www.w3.org/2000/svg">
<path d="M12.0386 6.10518C11.9245 5.99465 11.7645 5.94442 11.6079 5.97011C11.451 5.99569 11.3155 6.09391 11.2427 6.23486C10.9924 6.71976 10.6744 7.16539 10.3003 7.55931C10.3376 7.27475 10.3564 6.98848 10.3564 6.70146C10.3564 6.15071 10.2824 5.58394 10.1363 5.01672C9.65606 3.15361 8.39675 1.57802 6.68135 0.693947C6.53201 0.617003 6.35406 0.619704 6.20712 0.701151C6.06019 0.782631 5.96396 0.932016 5.95078 1.09911C5.81705 2.79221 4.94246 4.33256 3.54991 5.3262C3.53148 5.33944 3.51318 5.35284 3.49488 5.36619C3.45698 5.39383 3.42126 5.41998 3.38789 5.44193C3.38265 5.44541 3.37748 5.44895 3.3724 5.45258C2.49659 6.07782 1.77395 6.9113 1.28248 7.86314C0.783108 8.83134 0.529907 9.8703 0.529907 10.9511C0.529907 11.5017 0.603927 12.0684 0.749926 12.6357C1.5204 15.626 4.21914 17.7145 7.31275 17.7145C11.0526 17.7145 14.0952 14.6804 14.0952 10.9511C14.0952 9.11203 13.3648 7.39104 12.0386 6.10518Z" fill="#3E53D7"/>
<path d="M7.05304 13.057C8.19948 13.057 9.12885 12.1303 9.12885 10.9871C9.12885 9.84395 8.19948 8.91724 7.05304 8.91724C5.9066 8.91724 4.97723 9.84395 4.97723 10.9871C4.97723 12.1303 5.9066 13.057 7.05304 13.057Z" fill="white"/>
</svg>
