<svg width="32" height="28" viewBox="0 0 32 28" fill="none" xmlns="http://www.w3.org/2000/svg">
<path fill-rule="evenodd" clip-rule="evenodd" d="M14.5363 3.22315C14.2618 3.30948 13.3638 4.93266 13.2569 5.51337C13.2325 5.64533 13.4809 5.92254 13.837 6.2058C14.4346 6.65588 16.3461 8.39617 17.6411 9.64195C19.4292 11.387 20.4054 13.9933 20.7741 14.0606C23.4866 14.5556 27.5428 19.9476 28.1203 23.8316C28.7883 28.3324 26.4327 27.8208 26.1406 25.1211C25.7599 21.5729 24.3929 18.6498 22.0588 16.3959C21.2728 15.6386 21.2284 15.6577 21.4162 16.6333C22.318 21.4906 15.8457 23.747 12.9659 19.5792C11.0333 16.7711 13.5063 13.3209 17.4947 13.2439C18.4086 13.2333 16.7566 10.7492 14.3577 8.55167C12.3423 6.71058 12.5218 6.7706 12.0881 7.64638C10.2479 11.4303 9.33502 11.5093 7.9492 8.02335C7.32471 6.46338 5.9695 4.51085 4.09337 2.50421C3.37815 1.73254 3.9739 1.52752 5.56437 1.98147C7.29474 2.48823 9.76142 2.69284 11.8733 2.53257C14.8776 2.33053 14.9414 3.09248 14.5363 3.22315ZM17.2725 14.3765C14.4464 15.0885 13.5938 19.0526 15.9299 20.5565C17.4255 21.5253 19.5609 18.8729 19.1949 16.5007C18.8911 14.6037 18.4158 14.0804 17.2725 14.3765Z" fill="black"/>
</svg>
