<svg width="61" height="24" viewBox="0 0 61 24" fill="none" xmlns="http://www.w3.org/2000/svg">
<g clip-path="url(#clip0_116_390)">
<path d="M19.1777 16.1364L19.9006 14.4821C20.692 15.056 21.7243 15.3597 22.7569 15.3597C23.5141 15.3597 23.9958 15.0729 23.9958 14.6341C23.9785 13.4186 19.4359 14.3639 19.4013 11.308C19.3841 9.75496 20.7952 8.55639 22.7915 8.55639C23.9785 8.55639 25.1661 8.84347 26.0091 9.50196L25.3336 11.1916C24.558 10.7032 23.5999 10.3627 22.6881 10.3627C22.0686 10.3627 21.6555 10.6495 21.6555 11.0212C21.6728 12.2198 26.2502 11.5613 26.3018 14.4821C26.3018 16.069 24.9249 17.1832 22.9632 17.1832C21.518 17.1832 20.193 16.8456 19.1775 16.1364H19.1777ZM47.9602 13.883C47.7777 14.2005 47.5123 14.4647 47.1912 14.6485C46.8701 14.8324 46.5047 14.9293 46.1327 14.9294C44.9733 14.9294 44.0335 14.0072 44.0335 12.8698C44.0335 11.7324 44.9733 10.8102 46.1327 10.8102C46.5047 10.8103 46.8701 10.9072 47.1912 11.0911C47.5123 11.2749 47.7777 11.5391 47.9602 11.8566L49.9698 10.7643C49.2171 9.44711 47.7813 8.55639 46.1327 8.55639C43.7046 8.55639 41.7362 10.4874 41.7362 12.8698C41.7362 15.252 43.7046 17.1832 46.1327 17.1832C47.7813 17.1832 49.2171 16.2925 49.9698 14.9753L47.9602 13.883ZM27.6058 17.0143H30.1181V4.96576H27.6061L27.6058 17.0143ZM51.2385 4.96576V17.0143H53.7508V13.4046L56.7279 17.0143H59.9391L56.1533 12.726L59.6637 8.72458H56.5901L53.7508 12.0513V4.96576H51.2385ZM37.8582 8.72506V9.70446C37.4453 9.02906 36.43 8.55639 35.3631 8.55639C33.1605 8.55639 31.4226 10.4642 31.4226 12.8613C31.4226 15.2585 33.1605 17.1832 35.3631 17.1832C36.43 17.1832 37.4453 16.7105 37.8582 16.0351V17.0143H40.3705V8.72506H37.8582ZM37.8582 13.8997C37.4969 14.4905 36.7397 14.9291 35.8967 14.9291C34.737 14.9291 33.7972 14.0072 33.7972 12.8698C33.7972 11.7324 34.737 10.8102 35.8967 10.8102C36.7397 10.8102 37.4969 11.266 37.8582 11.8735V13.8997Z" fill="black"/>
<path d="M5.91011 4.69952C5.09595 4.69952 4.43604 5.34714 4.43604 6.14578C4.43585 6.33552 4.47382 6.52343 4.54779 6.6988C4.62177 6.87416 4.73029 7.03354 4.86717 7.16784C5.00405 7.30214 5.1666 7.40872 5.34555 7.48151C5.5245 7.55429 5.71634 7.59185 5.91011 7.59204H7.38442V6.14578C7.38475 5.76257 7.22961 5.39493 6.95313 5.12371C6.67665 4.85249 6.30147 4.69991 5.91011 4.69952ZM5.91011 8.55621H1.97901C1.16486 8.55621 0.504944 9.20383 0.504944 10.0027C0.504944 10.8014 1.16486 11.449 1.97901 11.449H5.91036C6.72426 11.449 7.38442 10.8014 7.38442 10.0027C7.38442 9.20383 6.72426 8.55621 5.91011 8.55621Z" fill="black"/>
<path d="M15.2466 10.0027C15.2466 9.20383 14.5864 8.55621 13.7723 8.55621C12.9581 8.55621 12.2982 9.20383 12.2982 10.0027V11.449H13.7723C14.1637 11.4486 14.5388 11.296 14.8153 11.0248C15.0918 10.7536 15.2469 10.3859 15.2466 10.0027ZM11.3155 10.0027V6.14578C11.3158 5.76257 11.1607 5.39493 10.8842 5.12371C10.6077 4.85249 10.2326 4.69991 9.8412 4.69952C9.02704 4.69952 8.36713 5.34714 8.36713 6.14578V10.0025C8.36713 10.8016 9.02704 11.4492 9.8412 11.4492C10.2326 11.4488 10.6077 11.2962 10.8842 11.025C11.1607 10.7538 11.3158 10.3862 11.3155 10.003" fill="black"/>
<path d="M9.84132 19.1626C10.2327 19.1622 10.6079 19.0096 10.8843 18.7384C11.1608 18.4672 11.316 18.0995 11.3156 17.7163C11.316 17.3331 11.1608 16.9655 10.8843 16.6943C10.6079 16.423 10.2327 16.2705 9.84132 16.2701H8.36725V17.7163C8.36725 18.515 9.02716 19.1626 9.84132 19.1626ZM9.84132 15.3059H13.7727C14.5866 15.3059 15.2467 14.6583 15.2467 13.8594C15.2471 13.4762 15.0919 13.1086 14.8154 12.8373C14.539 12.5661 14.1638 12.4135 13.7724 12.4131H9.84132C9.02716 12.4131 8.36725 13.0608 8.36725 13.8594C8.36705 14.0491 8.40503 14.2371 8.479 14.4124C8.55298 14.5878 8.6615 14.7472 8.79838 14.8815C8.93526 15.0158 9.09781 15.1223 9.27676 15.1951C9.45571 15.2679 9.64755 15.3055 9.84132 15.3057" fill="black"/>
<path d="M0.504884 13.8594C0.504689 14.0491 0.542663 14.2371 0.616636 14.4124C0.69061 14.5878 0.799135 14.7472 0.936015 14.8815C1.07289 15.0158 1.23545 15.1223 1.4144 15.1951C1.59334 15.2679 1.78518 15.3055 1.97895 15.3057C2.37031 15.3053 2.7455 15.1527 3.02198 14.8815C3.29846 14.6103 3.45359 14.2426 3.45327 13.8594V12.4131H1.97895C1.1648 12.4131 0.504884 13.0608 0.504884 13.8594ZM4.43598 13.8594V17.7161C4.43598 18.515 5.09589 19.1626 5.91005 19.1626C6.30141 19.1622 6.67659 19.0096 6.95307 18.7384C7.22955 18.4672 7.38469 18.0995 7.38436 17.7163V13.8594C7.38456 13.6697 7.34658 13.4817 7.27259 13.3063C7.1986 13.131 7.09005 12.9716 6.95315 12.8373C6.81624 12.703 6.65366 12.5964 6.47468 12.5236C6.2957 12.4508 6.10384 12.4133 5.91005 12.4131C5.09589 12.4131 4.43598 13.0608 4.43598 13.8594Z" fill="black"/>
</g>
<defs>
<clipPath id="clip0_116_390">
<rect width="59.5757" height="23.141" fill="white" transform="translate(0.504883 0.50354)"/>
</clipPath>
</defs>
</svg>
