<svg width="49" height="24" viewBox="0 0 49 24" fill="none" xmlns="http://www.w3.org/2000/svg">
<g clip-path="url(#clip0_116_385)">
<path fill-rule="evenodd" clip-rule="evenodd" d="M39.3496 10.4335C39.5338 10.7447 39.5941 11.0989 39.614 11.497L39.6402 12.0276V15.7383L39.6669 16.2695C39.7204 17.137 40.3737 17.7785 41.2666 17.833L41.8062 17.8592V12.0276L41.8329 11.497C41.8551 11.1033 41.9148 10.7425 42.1019 10.429C42.2926 10.1075 42.5662 9.8407 42.8955 9.65548C43.2247 9.47026 43.5979 9.37311 43.9776 9.37379C44.3574 9.37446 44.7302 9.47294 45.0588 9.65934C45.3873 9.84573 45.66 10.1135 45.8494 10.4357C46.0337 10.747 46.0911 11.1078 46.1133 11.497L46.14 12.026V15.7383L46.1667 16.2695C46.2225 17.1415 46.8708 17.7829 47.7664 17.833L48.3061 17.8592V11.497C48.3061 10.372 47.8498 9.29303 47.0375 8.49737C46.2252 7.70171 45.1235 7.25449 43.9745 7.25404C43.3596 7.25341 42.7516 7.38128 42.1911 7.62911C41.6307 7.87695 41.1307 8.23904 40.7246 8.69119C40.3183 8.23922 39.8183 7.87721 39.2579 7.62931C38.6975 7.3814 38.0896 7.25328 37.4747 7.25349C36.5751 7.25349 35.7403 7.52076 35.0488 7.98236C34.6268 7.52132 33.6828 7.25349 33.1409 7.25349V17.8592L33.6828 17.833C34.5893 17.7746 35.2444 17.1504 35.2796 16.2695L35.3086 15.7383V12.0276L35.3354 11.497C35.3581 11.0966 35.415 10.7447 35.5998 10.4313C35.7906 10.1099 36.0642 9.8432 36.3932 9.65775C36.7222 9.4723 37.0951 9.3746 37.4747 9.37441C37.8546 9.37449 38.2278 9.47238 38.5569 9.65827C38.886 9.84415 39.1593 10.1115 39.3496 10.4335ZM2.27088 17.8336L2.81281 17.8592H10.9362L10.9095 17.3302C10.8361 16.4583 10.2055 15.8213 9.31209 15.7645L8.77016 15.7383H3.89669L10.3943 9.37385L10.3675 8.84543C10.3255 7.96454 9.66808 7.3281 8.77016 7.27966L8.22822 7.25572L0.104828 7.25349L0.131555 7.78414C0.202638 8.64776 0.842387 9.29813 1.72837 9.34824L2.27088 9.37441H7.14434L0.646766 15.7388L0.673494 16.2695C0.726948 17.1437 1.37125 17.7768 2.27088 17.833V17.8336ZM31.0147 8.8059C31.5176 9.2983 31.9166 9.88291 32.1889 10.5263C32.4611 11.1697 32.6012 11.8594 32.6012 12.5558C32.6012 13.2522 32.4611 13.9419 32.1889 14.5853C31.9166 15.2287 31.5176 15.8133 31.0147 16.3057C29.9984 17.2999 28.6207 17.8584 27.1841 17.8584C25.7476 17.8584 24.3698 17.2999 23.3536 16.3057C21.2387 14.2349 21.2387 10.8767 23.3536 8.8059C23.8561 8.31366 24.4527 7.92316 25.1094 7.6567C25.7661 7.39024 26.4699 7.25304 27.1807 7.25293C27.8927 7.25245 28.5978 7.38941 29.2556 7.65597C29.9135 7.92254 30.5112 8.31349 31.0147 8.80645V8.8059ZM29.4821 10.3076C30.0913 10.9046 30.4334 11.7139 30.4334 12.5577C30.4334 13.4016 30.0913 14.2109 29.4821 14.8078C28.8725 15.4043 28.0459 15.7394 27.1841 15.7394C26.3223 15.7394 25.4958 15.4043 24.8861 14.8078C24.277 14.2109 23.9348 13.4016 23.9348 12.5577C23.9348 11.7139 24.277 10.9046 24.8861 10.3076C25.4958 9.71117 26.3223 9.37611 27.1841 9.37611C28.0459 9.37611 28.8725 9.71117 29.4821 10.3076ZM15.8142 7.25293C16.5251 7.25311 17.2289 7.3904 17.8856 7.65696C18.5422 7.92351 19.1389 8.31411 19.6413 8.80645C21.7568 10.8767 21.7568 14.2354 19.6413 16.3057C18.6251 17.2999 17.2474 17.8584 15.8108 17.8584C14.3743 17.8584 12.9965 17.2999 11.9803 16.3057C9.86541 14.2349 9.86541 10.8767 11.9803 8.8059C12.4828 8.31366 13.0794 7.92316 13.7361 7.6567C14.3927 7.39024 15.0966 7.25304 15.8074 7.25293H15.8142ZM18.1088 10.3065C18.7181 10.9035 19.0604 11.7129 19.0604 12.5569C19.0604 13.4009 18.7181 14.2103 18.1088 14.8073C17.4992 15.4038 16.6726 15.7388 15.8108 15.7388C14.949 15.7388 14.1224 15.4038 13.5128 14.8073C12.9037 14.2104 12.5615 13.401 12.5615 12.5572C12.5615 11.7133 12.9037 10.904 13.5128 10.3071C14.1224 9.71061 14.949 9.37556 15.8108 9.37556C16.6726 9.37556 17.4992 9.71061 18.1088 10.3071V10.3065Z" fill="black"/>
</g>
<defs>
<clipPath id="clip0_116_385">
<rect width="48.2514" height="23.141" fill="white" transform="translate(0.104858 0.50354)"/>
</clipPath>
</defs>
</svg>
