<svg width="116" height="156" viewBox="0 0 116 156" fill="none" xmlns="http://www.w3.org/2000/svg">
<g clip-path="url(#clip0_116_238)">
<mask id="mask0_116_238" style="mask-type:luminance" maskUnits="userSpaceOnUse" x="16" y="-14" width="106" height="163">
<path d="M16.0949 129.053L67.2181 -13.3302L121.119 6.02302L69.9956 148.406L16.0949 129.053Z" fill="white"/>
</mask>
<g mask="url(#mask0_116_238)">
<g opacity="0.2">
<path d="M16.0947 129.053L39.14 97.3002L38.7611 106.502L16.0947 129.053Z" fill="#3F53D7"/>
<path d="M38.7614 106.503L44.2568 111.109L16.095 129.053L38.7614 106.503Z" fill="#D3DAF4"/>
<path d="M38.8783 107.26L16.0948 129.053L36.0698 121.739L38.8783 107.26Z" fill="#3F53D7"/>
<path d="M120.264 6.06337C116.294 22.4801 107.043 38.1053 92.7721 47.1411C86.4752 51.1333 78.7706 53.8211 71.4656 52.164C68.5439 51.4971 65.4705 49.782 64.8095 46.8628C64.5565 45.4 64.739 43.8951 65.3349 42.5354C66.1764 40.3712 67.5176 38.4366 69.2491 36.889C70.9801 35.3415 73.0525 34.225 75.2975 33.6302C77.5421 33.0356 79.8956 32.9797 82.1657 33.4671C84.4363 33.9545 86.5591 34.9715 88.3621 36.4351C92.0063 39.4043 94.047 44.0348 94.5835 48.6947C95.1195 53.3548 94.2723 58.0947 92.9341 62.5956C86.402 84.6584 67.0849 102.408 44.5653 107.134" stroke="black" stroke-width="0.653912" stroke-linecap="round" stroke-linejoin="round" stroke-dasharray="1.85 1.85"/>
</g>
</g>
</g>
<defs>
<clipPath id="clip0_116_238">
<rect width="140.065" height="121.201" fill="white" transform="matrix(0.139704 0.990193 0.990193 -0.139704 0.295166 17.0679)"/>
</clipPath>
</defs>
</svg>
