<svg width="124" height="143" viewBox="0 0 124 143" fill="none" xmlns="http://www.w3.org/2000/svg">
<g clip-path="url(#clip0_116_208)">
<mask id="mask0_116_208" style="mask-type:luminance" maskUnits="userSpaceOnUse" x="2" y="1" width="120" height="162">
<path d="M2.21226 27.8637L70.7639 162.724L121.817 136.773L53.2649 1.91278L2.21226 27.8637Z" fill="white"/>
</mask>
<g mask="url(#mask0_116_208)">
<g opacity="0.2">
<path d="M2.21207 27.8638L29.0524 56.4802L27.5241 47.398L2.21207 27.8638Z" fill="#3F53D7"/>
<path d="M27.5243 47.3979L32.3996 42.1394L2.21234 27.8637L27.5243 47.3979Z" fill="#D3DAF4"/>
<path d="M27.5455 46.6318L2.21226 27.8637L22.946 32.6188L27.5455 46.6318Z" fill="#3F53D7"/>
<path d="M120.963 136.84C114.969 121.049 103.834 106.706 88.544 99.5281C81.7966 96.3559 73.8161 94.6541 66.7762 97.213C63.961 98.2406 61.1265 100.327 60.8364 103.306C60.7685 104.789 61.138 106.259 61.8995 107.534C63.0055 109.575 64.5783 111.327 66.49 112.645C68.4012 113.964 70.5971 114.812 72.899 115.121C75.2003 115.43 77.5423 115.191 79.7335 114.423C81.9251 113.655 83.9039 112.38 85.5094 110.702C88.7531 107.3 90.1978 102.45 90.1465 97.7599C90.0947 93.0693 88.6606 88.4729 86.7693 84.175C77.5256 63.1039 56.1378 47.9129 33.2036 46.0442" stroke="black" stroke-width="0.653912" stroke-linecap="round" stroke-linejoin="round" stroke-dasharray="1.85 1.85"/>
</g>
</g>
</g>
<defs>
<clipPath id="clip0_116_208">
<rect width="140.065" height="121.201" fill="white" transform="translate(0.561127 140.946) rotate(-89.1634)"/>
</clipPath>
</defs>
</svg>
