<svg width="85" height="26" viewBox="0 0 85 26" fill="none" xmlns="http://www.w3.org/2000/svg">
<path d="M78.4792 11.0334V9.22377H77.9185V8.82327H79.4908V9.22377H78.939V11.0334H78.4792ZM79.7186 11.0334V8.82327H80.1636L80.9913 9.92094H80.7836L81.5876 8.82327H82.0326V11.0334H81.5727V9.33057L81.7567 9.37211L80.9052 10.4698H80.8459L80.0241 9.37211L80.1784 9.33057V11.0334H79.7186Z" fill="black"/>
<g clip-path="url(#clip0_116_352)">
<path fill-rule="evenodd" clip-rule="evenodd" d="M18.7836 8.257C19.0059 8.22043 19.2331 8.29194 19.395 8.44931C21.2778 10.28 22.3147 12.7302 22.3147 15.3485C22.3147 20.658 17.9953 24.9776 12.6861 24.9776C8.29424 24.9776 4.46303 22.0042 3.36924 17.7469C3.16197 16.9392 3.05688 16.1323 3.05688 15.3485C3.05688 13.8097 3.41634 12.3306 4.12528 10.9521C4.82296 9.597 5.84886 8.41037 7.09218 7.52018C7.0994 7.51501 7.10676 7.50998 7.11417 7.50504C7.15999 7.47483 7.20892 7.43902 7.26074 7.4011L7.26607 7.3972C7.27131 7.39337 7.27655 7.38953 7.2818 7.38569C7.30253 7.37051 7.3233 7.35531 7.34418 7.34027C9.32109 5.92562 10.5627 3.73261 10.7525 1.32213C10.7713 1.08423 10.9079 0.87155 11.1165 0.755546C11.3251 0.639589 11.5777 0.635743 11.7897 0.745289C14.2249 2.00395 16.0127 4.24715 16.6945 6.89966C16.9018 7.70723 17.0069 8.51412 17.0069 9.29823C17.0069 9.70688 16.9803 10.1144 16.9273 10.5196C17.4584 9.95873 17.9098 9.3243 18.2652 8.63393C18.3685 8.43326 18.5608 8.29342 18.7836 8.257ZM12.3175 18.3466C13.945 18.3466 15.2644 17.0272 15.2644 15.3997C15.2644 13.7722 13.945 12.4528 12.3175 12.4528C10.6899 12.4528 9.37057 13.7722 9.37057 15.3997C9.37057 17.0272 10.6899 18.3466 12.3175 18.3466Z" fill="#4054D8"/>
</g>
<path d="M33.8977 20.8142C34.6397 20.8142 35.2961 20.6787 35.8669 20.4076C36.4377 20.1222 36.8729 19.6941 37.1725 19.1233V20.5574H40.169V8.87093H36.9585V15.6987C36.9585 16.3694 36.7587 16.9116 36.3592 17.3254C35.9596 17.725 35.4459 17.9247 34.8181 17.9247C34.1903 17.9247 33.6766 17.725 33.277 17.3254C32.8775 16.9116 32.6777 16.3694 32.6777 15.6987V8.87093H29.4672V15.9556C29.4672 17.411 29.8453 18.5882 30.6016 19.4872C31.3721 20.3719 32.4708 20.8142 33.8977 20.8142Z" fill="black"/>
<path d="M42.5156 7.82215H45.7262V4.61158H42.5156V7.82215ZM42.5156 20.5574H45.7262V8.87093H42.5156V20.5574Z" fill="black"/>
<path d="M49.4882 20.5574H52.6988V11.6534H55.203V8.87093H52.6988V8.6997C52.6988 7.65805 53.3052 7.13723 54.5181 7.13723C54.7179 7.13723 54.9533 7.15863 55.2244 7.20144V4.46176C54.8962 4.39041 54.5181 4.35474 54.09 4.35474C52.6346 4.35474 51.5002 4.73287 50.6868 5.48914C49.8877 6.2454 49.4882 7.31559 49.4882 8.6997V8.87093H47.5191V11.6534H49.4882V20.5574Z" fill="black"/>
<path d="M56.8545 20.5574H60.065V14.2647C60.065 13.3943 60.3076 12.7236 60.7927 12.2527C61.2779 11.7676 61.9129 11.525 62.6977 11.525H63.7037V8.74251H63.0187C62.3053 8.74251 61.6703 8.87806 61.1138 9.14918C60.5716 9.40602 60.1506 9.89831 59.851 10.626V8.87093H56.8545V20.5574Z" fill="black"/>
<path d="M66.9301 25.309C69.0705 25.309 70.6187 24.089 71.5747 21.649L76.5832 8.87093H73.1372L70.3761 16.3837L67.615 8.87093H64.169L68.7708 20.5574L68.5568 21.0497C68.3856 21.4349 68.1644 21.7774 67.8933 22.0771C67.6222 22.3767 67.1727 22.5265 66.5448 22.5265C66.0311 22.5265 65.546 22.4552 65.0894 22.3125V24.9452C65.332 25.0736 65.6102 25.1663 65.9241 25.2234C66.2523 25.2805 66.5876 25.309 66.9301 25.309Z" fill="black"/>
<defs>
<clipPath id="clip0_116_352">
<rect width="24.3119" height="24.3119" fill="white" transform="translate(0.529907 0.666016)"/>
</clipPath>
</defs>
</svg>
